<?xml version="1.0" standalone="no"?>
<!DOCTYPE svg PUBLIC "-//W3C//DTD SVG 20010904//EN"
 "http://www.w3.org/TR/2001/REC-SVG-20010904/DTD/svg10.dtd">
<svg version="1.0" xmlns="http://www.w3.org/2000/svg"
 width="1360.000000pt" height="646.000000pt" viewBox="0 0 1360.000000 646.000000"
 preserveAspectRatio="xMidYMid meet">

<g transform="translate(0.000000,646.000000) scale(0.100000,-0.100000)"
fill="#000000" stroke="none">
<path d="M12024 6442 c-63 -9 -89 -102 -42 -148 56 -57 150 -19 150 61 0 59
-47 97 -108 87z m14 -74 c-2 -27 -7 -33 -27 -33 -19 0 -25 6 -26 25 -3 34 2
40 31 40 22 0 25 -4 22 -32z m62 5 c0 -2 -6 -10 -13 -17 -10 -11 -15 -10 -26
2 -11 11 -11 16 -1 22 13 8 40 3 40 -7z"/>
<path d="M12005 6380 c-3 -5 -1 -10 4 -10 6 0 11 5 11 10 0 6 -2 10 -4 10 -3
0 -8 -4 -11 -10z"/>
<path d="M216 6323 c-6 -14 -5 -15 5 -6 7 7 10 15 7 18 -3 3 -9 -2 -12 -12z"/>
<path d="M408 6293 c5 -21 7 -23 10 -9 2 10 0 22 -6 28 -6 6 -7 0 -4 -19z"/>
<path d="M235 6299 c-4 -6 -5 -12 -2 -15 2 -3 7 2 10 11 7 17 1 20 -8 4z"/>
<path d="M376 6297 c3 -10 9 -15 12 -12 3 3 0 11 -7 18 -10 9 -11 8 -5 -6z"/>
<path d="M11468 6274 c12 -8 22 -20 22 -26 0 -6 -10 -3 -22 8 -23 19 -23 19
-5 -2 16 -19 47 -29 47 -14 0 10 -45 50 -55 50 -5 0 1 -7 13 -16z"/>
<path d="M11847 6275 c-8 -7 -18 -31 -22 -51 -6 -32 -3 -40 17 -56 13 -9 30
-18 38 -18 8 0 25 9 38 18 20 16 23 24 17 56 -8 42 -28 66 -55 66 -10 0 -25
-7 -33 -15z m61 -8 c7 -7 13 -29 14 -48 l3 -34 -45 0 -45 0 3 34 c3 40 17 61
42 61 10 0 22 -6 28 -13z m-15 -104 c-7 -2 -19 -2 -25 0 -7 3 -2 5 12 5 14 0
19 -2 13 -5z"/>
<path d="M12306 6275 c-3 -8 -12 -12 -21 -9 -16 7 -16 6 -20 -41 -2 -40 5 -57
22 -51 7 3 16 -1 19 -9 4 -8 14 -15 24 -15 10 0 20 7 24 15 3 8 12 12 21 9 16
-7 16 -6 20 41 2 40 -5 57 -22 51 -7 -3 -16 1 -19 9 -4 8 -14 15 -24 15 -10 0
-20 -7 -24 -15z m38 -10 c3 -8 15 -15 27 -15 18 0 19 -2 9 -15 -10 -12 -10
-18 0 -30 10 -13 9 -15 -8 -15 -12 0 -26 -8 -32 -17 -10 -17 -10 -17 -20 0 -6
9 -20 17 -32 17 -17 0 -18 2 -8 15 10 12 10 18 0 30 -10 13 -9 15 9 15 12 0
24 7 27 15 4 8 10 15 14 15 4 0 10 -7 14 -15z"/>
<path d="M12310 6220 c0 -13 7 -20 20 -20 13 0 20 7 20 20 0 13 -7 20 -20 20
-13 0 -20 -7 -20 -20z"/>
<path d="M9597 6272 c-13 -3 -17 -15 -17 -58 l0 -54 60 0 60 0 0 55 c0 37 -4
55 -12 56 -59 3 -77 4 -91 1z m93 -28 c0 -10 -14 -14 -50 -14 -36 0 -50 4 -50
14 0 9 14 13 50 13 36 0 50 -4 50 -13z m0 -49 c0 -23 -3 -25 -50 -25 -47 0
-50 2 -50 25 0 23 3 25 50 25 47 0 50 -2 50 -25z"/>
<path d="M10040 6265 c-19 -22 -8 -25 13 -3 9 10 13 18 8 18 -5 0 -14 -7 -21
-15z"/>
<path d="M10540 6235 c-12 -44 -14 -47 -23 -27 -10 22 -37 31 -37 12 0 -5 6
-10 13 -10 7 0 18 -12 24 -27 10 -28 10 -27 23 22 12 44 14 47 23 27 10 -22
37 -31 37 -12 0 6 -6 10 -13 10 -7 0 -18 12 -24 28 -10 27 -10 26 -23 -23z"/>
<path d="M10914 6266 c-3 -8 -4 -29 -2 -48 2 -28 7 -34 31 -36 15 -2 25 -8 22
-13 -4 -5 8 -9 25 -9 17 0 29 4 25 9 -3 5 7 11 22 13 26 3 28 6 28 48 l0 45
-73 3 c-56 2 -74 0 -78 -12z m146 -36 l0 -40 -70 0 -70 0 0 40 0 40 70 0 70 0
0 -40z"/>
<path d="M11387 6273 c-26 -26 28 -114 70 -112 16 0 16 1 -2 9 -37 15 -68 57
-63 84 6 28 5 30 -5 19z"/>
<path d="M11417 6259 c4 -13 8 -18 11 -10 2 7 -1 18 -6 23 -8 8 -9 4 -5 -13z"/>
<path d="M221 6254 c0 -11 3 -14 6 -6 3 7 2 16 -1 19 -3 4 -6 -2 -5 -13z"/>
<path d="M361 6254 c0 -11 3 -14 6 -6 3 7 2 16 -1 19 -3 4 -6 -2 -5 -13z"/>
<path d="M753 6220 c0 -25 2 -35 4 -22 3 13 12 22 23 22 11 0 20 -9 23 -22 2
-13 4 -3 4 22 1 25 -1 37 -4 28 -2 -10 -13 -18 -23 -18 -10 0 -21 8 -23 18 -3
9 -5 -3 -4 -28z"/>
<path d="M927 6253 c-13 -12 -7 -23 18 -35 28 -12 23 -32 -6 -25 -11 3 -17 1
-13 -4 9 -15 41 -10 48 6 4 10 -3 20 -19 27 -30 13 -33 33 -5 25 11 -3 20 -1
20 4 0 10 -33 12 -43 2z"/>
<path d="M1230 6219 c0 -38 1 -40 28 -37 35 4 45 46 13 55 -12 3 -21 9 -21 14
0 5 -4 9 -10 9 -5 0 -10 -18 -10 -41z m45 -9 c0 -7 -6 -15 -12 -17 -8 -3 -13
4 -13 17 0 13 5 20 13 18 6 -3 12 -11 12 -18z"/>
<path d="M1300 6220 c0 -22 5 -40 10 -40 6 0 10 11 10 25 0 14 5 25 10 25 6 0
10 -11 10 -25 0 -14 5 -25 10 -25 6 0 10 6 10 14 0 25 -12 46 -26 46 -8 0 -14
5 -14 10 0 6 -4 10 -10 10 -5 0 -10 -18 -10 -40z"/>
<path d="M1401 6218 c1 -24 3 -35 6 -25 2 9 13 17 23 17 10 0 20 6 22 13 9 22
-3 37 -28 37 -22 0 -24 -4 -23 -42z m39 17 c0 -8 -7 -15 -15 -15 -8 0 -15 7
-15 15 0 8 7 15 15 15 8 0 15 -7 15 -15z"/>
<path d="M1937 6253 c-3 -5 5 -8 18 -8 13 0 21 3 18 8 -2 4 -10 7 -18 7 -8 0
-16 -3 -18 -7z"/>
<path d="M2000 6225 c0 -30 3 -35 23 -34 16 1 18 2 5 6 -10 2 -18 8 -18 13 0
5 8 11 18 13 16 4 16 5 0 6 -10 0 -18 5 -18 10 0 5 8 12 18 14 13 4 11 5 -5 6
-20 1 -23 -4 -23 -34z"/>
<path d="M2060 6250 c0 -5 5 -10 11 -10 5 0 7 5 4 10 -3 6 -8 10 -11 10 -2 0
-4 -4 -4 -10z"/>
<path d="M2137 6252 c6 -4 13 -21 16 -37 l4 -30 2 32 c0 17 7 34 14 36 6 3 -1
6 -18 6 -16 0 -25 -3 -18 -7z"/>
<path d="M12735 6250 c-8 -13 3 -30 18 -29 9 0 9 2 0 6 -18 7 -16 21 5 26 15
4 15 5 0 6 -9 0 -20 -3 -23 -9z"/>
<path d="M12806 6251 c-3 -5 2 -7 13 -4 15 4 21 -1 24 -21 4 -26 4 -26 3 1 -1
28 -28 44 -40 24z"/>
<path d="M12878 6253 c6 -2 18 -2 25 0 6 3 1 5 -13 5 -14 0 -19 -2 -12 -5z"/>
<path d="M12955 6251 c-4 -7 0 -8 10 -4 10 3 21 0 27 -8 8 -12 9 -11 5 1 -5
18 -33 25 -42 11z"/>
<path d="M13038 6220 c2 -22 6 -40 8 -40 2 0 4 18 4 40 0 22 -3 40 -8 40 -4 0
-6 -18 -4 -40z"/>
<path d="M13246 6245 c-4 -10 3 -20 19 -27 29 -13 22 -32 -8 -22 -17 5 -19 3
-11 -6 7 -6 20 -10 30 -8 27 5 30 35 5 43 -27 8 -27 29 -1 22 11 -3 18 -1 14
4 -9 15 -41 10 -48 -6z"/>
<path d="M13331 6218 c1 -24 3 -35 6 -25 2 9 13 17 24 17 14 0 19 7 19 25 0
20 -5 25 -25 25 -23 0 -25 -4 -24 -42z m39 17 c0 -8 -7 -15 -15 -15 -8 0 -15
7 -15 15 0 8 7 15 15 15 8 0 15 -7 15 -15z"/>
<path d="M403 6203 c-10 -34 -10 -36 3 -19 12 17 20 56 11 56 -1 0 -7 -17 -14
-37z"/>
<path d="M832 6210 c0 -19 2 -27 5 -17 2 9 2 25 0 35 -3 9 -5 1 -5 -18z"/>
<path d="M1010 6232 c8 -4 17 -16 18 -27 6 -33 14 -33 10 0 -2 21 -9 31 -23
32 -15 2 -16 1 -5 -5z"/>
<path d="M1061 6213 c-1 -29 2 -33 24 -31 21 2 25 7 24 33 -1 28 -1 28 -8 6
-9 -35 -29 -37 -34 -4 -4 27 -4 27 -6 -4z"/>
<path d="M1120 6210 c0 -16 5 -30 10 -30 6 0 10 11 10 24 0 13 6 27 13 29 6 3
2 6 -10 6 -19 1 -23 -4 -23 -29z"/>
<path d="M1182 6233 c9 -2 19 -10 22 -18 7 -19 -14 -31 -25 -14 -7 11 -9 10
-9 -3 0 -13 8 -18 25 -18 15 0 25 6 25 14 0 29 -13 46 -34 45 -15 -1 -16 -3
-4 -6z"/>
<path d="M1474 6226 c-9 -24 4 -48 23 -44 12 2 18 12 18 28 0 29 -32 41 -41
16z m36 -16 c0 -21 -15 -27 -25 -10 -7 12 2 30 16 30 5 0 9 -9 9 -20z"/>
<path d="M1541 6225 c0 -11 4 -27 9 -35 8 -12 11 -11 16 9 l7 23 12 -22 c12
-22 12 -22 23 9 6 18 7 29 2 26 -6 -4 -10 -14 -10 -23 -1 -13 -4 -11 -14 7
l-14 24 -8 -24 -8 -24 -7 25 c-6 20 -7 21 -8 5z"/>
<path d="M1650 6232 c8 -4 17 -16 18 -27 6 -33 14 -33 10 0 -2 21 -9 31 -23
32 -15 2 -16 1 -5 -5z"/>
<path d="M1701 6208 c2 -28 2 -29 6 -8 3 14 10 28 17 32 7 5 5 8 -6 8 -14 0
-18 -8 -17 -32z"/>
<path d="M300 6206 c0 -16 6 -26 14 -26 9 0 12 7 9 20 -8 31 -23 34 -23 6z"/>
<path d="M376 6215 c-9 -26 -7 -32 5 -12 6 10 9 21 6 23 -2 3 -7 -2 -11 -11z"/>
<path d="M1885 6220 c-19 -8 -19 -9 3 -9 12 -1 22 4 22 9 0 6 -1 10 -2 9 -2 0
-12 -4 -23 -9z"/>
<path d="M2091 6213 c7 -12 15 -20 18 -17 3 2 -3 12 -13 22 -17 16 -18 16 -5
-5z"/>
<path d="M11433 6213 c12 -14 25 -19 39 -15 18 4 20 2 15 -18 -4 -16 -3 -20 5
-12 16 16 1 44 -20 40 -11 -2 -27 4 -38 12 -18 14 -19 14 -1 -7z"/>
<path d="M12807 6219 c7 -7 15 -10 18 -7 3 3 -2 9 -12 12 -14 6 -15 5 -6 -5z"/>
<path d="M236 6205 c4 -8 11 -15 16 -15 6 0 5 6 -2 15 -7 8 -14 15 -16 15 -2
0 -1 -7 2 -15z"/>
<path d="M10020 6204 c0 -26 13 -44 31 -44 31 0 25 46 -6 52 -16 4 -25 1 -25
-8z"/>
<path d="M10133 6212 c-17 -2 -23 -10 -23 -28 0 -34 37 -33 46 1 8 30 6 32
-23 27z"/>
<path d="M12965 6200 c-18 -20 -17 -20 11 -19 18 1 22 3 11 6 -14 4 -16 8 -6
19 18 22 4 17 -16 -6z"/>
<path d="M990 6197 c0 -10 8 -17 18 -17 9 0 13 4 7 8 -5 4 -13 11 -17 16 -5 5
-8 2 -8 -7z"/>
<path d="M1630 6197 c0 -10 8 -17 18 -17 9 0 13 4 7 8 -5 4 -13 11 -17 16 -5
5 -8 2 -8 -7z"/>
<path d="M1938 6198 c5 -5 16 -8 23 -6 8 3 3 7 -10 11 -17 4 -21 3 -13 -5z"/>
<path d="M216 6187 c3 -10 9 -15 12 -12 3 3 0 11 -7 18 -10 9 -11 8 -5 -6z"/>
<path d="M12737 6188 c2 -5 10 -8 18 -8 8 0 16 3 18 8 3 4 -5 7 -18 7 -13 0
-21 -3 -18 -7z"/>
<path d="M12808 6188 c5 -5 16 -8 23 -6 8 3 3 7 -10 11 -17 4 -21 3 -13 -5z"/>
<path d="M861 6174 c0 -11 3 -14 6 -6 3 7 2 16 -1 19 -3 4 -6 -2 -5 -13z"/>
<path d="M318 6103 c6 -2 18 -2 25 0 6 3 1 5 -13 5 -14 0 -19 -2 -12 -5z"/>
<path d="M12983 5853 c82 -2 212 -2 290 0 78 1 12 3 -148 3 -159 0 -223 -2
-142 -3z"/>
<path d="M271 5773 c-29 -25 -32 -32 -28 -73 l4 -45 1 47 c2 43 6 50 39 73 21
14 33 25 27 25 -5 0 -25 -12 -43 -27z"/>
<path d="M352 5768 c20 -17 28 -35 31 -68 l4 -45 1 47 c2 42 -1 49 -30 68
l-33 22 27 -24z"/>
<path d="M1100 5760 c0 -5 5 -10 11 -10 5 0 7 5 4 10 -3 6 -8 10 -11 10 -2 0
-4 -4 -4 -10z"/>
<path d="M1265 5753 c-16 -16 -16 -18 4 -34 12 -10 27 -19 34 -22 9 -4 9 -7 0
-18 -10 -10 -16 -10 -25 -1 -18 18 -33 15 -18 -4 19 -22 64 -14 68 12 2 16 -4
24 -28 33 -38 13 -30 35 9 27 25 -6 25 -6 7 9 -25 19 -31 19 -51 -2z"/>
<path d="M1535 5760 c-3 -5 -1 -10 4 -10 6 0 11 5 11 10 0 6 -2 10 -4 10 -3 0
-8 -4 -11 -10z"/>
<path d="M10828 5756 c-16 -8 -24 -22 -26 -45 -5 -48 20 -72 72 -68 l41 2 0
41 c-1 64 -38 94 -87 70z m66 -22 c21 -21 20 -40 -4 -64 -23 -23 -33 -24 -61
-10 -22 12 -26 59 -7 78 17 17 54 15 72 -4z"/>
<path d="M12753 5700 c0 -41 2 -58 4 -37 2 20 2 54 0 75 -2 20 -4 3 -4 -38z"/>
<path d="M13493 5700 c0 -41 2 -58 4 -37 2 20 2 54 0 75 -2 20 -4 3 -4 -38z"/>
<path d="M803 5743 c-3 -10 -12 -33 -19 -50 -8 -20 -9 -33 -3 -33 5 0 12 7 15
15 4 8 14 15 24 15 10 0 20 -7 24 -15 3 -8 10 -15 15 -15 5 0 2 23 -7 50 -16
50 -37 65 -49 33z m23 -40 c-11 -11 -19 6 -11 24 8 17 8 17 12 0 3 -10 2 -21
-1 -24z"/>
<path d="M930 5745 c0 -8 -6 -12 -12 -10 -23 8 -40 -11 -36 -41 3 -25 8 -29
36 -31 32 -1 32 -1 32 48 0 27 -4 49 -10 49 -5 0 -10 -7 -10 -15z m0 -44 c0
-11 -4 -22 -9 -25 -12 -8 -34 21 -26 34 11 17 35 11 35 -9z"/>
<path d="M1437 5747 c-9 -26 5 -87 21 -87 12 0 13 3 4 12 -16 16 -15 45 0 50
9 3 8 9 -4 21 -12 12 -17 13 -21 4z"/>
<path d="M1487 5747 c-9 -26 5 -87 21 -87 12 0 13 3 4 12 -16 16 -15 45 0 50
9 3 8 9 -4 21 -12 12 -17 13 -21 4z"/>
<path d="M2809 5739 c-31 -31 -13 -88 28 -89 23 0 43 13 43 28 0 12 -3 13 -12
4 -15 -15 -45 -16 -53 -1 -4 5 -4 21 -1 35 7 26 34 32 54 12 9 -9 12 -9 12 0
0 10 -30 32 -44 32 -3 0 -15 -9 -27 -21z"/>
<path d="M3622 5743 c-11 -21 -4 -93 9 -93 5 0 10 15 11 33 2 46 3 50 11 65 5
7 3 12 -7 12 -8 0 -19 -8 -24 -17z"/>
<path d="M3490 5700 c0 -27 5 -50 10 -50 6 0 10 23 10 50 0 28 -4 50 -10 50
-5 0 -10 -22 -10 -50z"/>
<path d="M11060 5746 c0 -2 11 -6 25 -8 13 -3 22 -1 19 3 -5 9 -44 13 -44 5z"/>
<path d="M11362 5710 c1 -29 2 -35 5 -17 2 15 10 27 18 27 8 0 16 -12 18 -27
l4 -28 2 28 c0 18 -5 30 -16 34 -10 4 -21 11 -25 17 -4 6 -7 -9 -6 -34z"/>
<path d="M971 5695 c1 -36 2 -37 8 -11 9 41 31 46 31 7 0 -17 5 -31 10 -31 6
0 10 14 10 30 0 20 5 30 15 30 10 0 15 -10 15 -30 0 -16 5 -30 11 -30 6 0 9
16 7 38 l-3 37 -52 0 -53 0 1 -40z"/>
<path d="M1103 5700 c0 -25 2 -35 4 -22 2 12 2 32 0 45 -2 12 -4 2 -4 -23z"/>
<path d="M1135 5732 c-9 -10 -5 -72 5 -72 6 0 10 14 10 30 0 20 5 30 15 30 10
0 15 -10 15 -30 0 -16 5 -30 11 -30 6 0 9 16 7 38 -3 33 -6 37 -30 38 -15 1
-30 -1 -33 -4z"/>
<path d="M1362 5731 c-20 -12 -11 -65 12 -69 10 -2 23 2 30 8 8 9 6 11 -11 6
-12 -4 -24 -2 -28 4 -4 6 4 10 18 10 31 0 38 9 26 31 -10 20 -26 24 -47 10z
m31 -18 c-7 -2 -19 -2 -25 0 -7 3 -2 5 12 5 14 0 19 -2 13 -5z"/>
<path d="M1537 5733 c-11 -10 -8 -73 3 -73 6 0 10 18 10 40 0 41 -2 45 -13 33z"/>
<path d="M1570 5699 c0 -21 5 -39 10 -39 6 0 10 14 10 30 0 20 5 30 15 30 10
0 15 -10 15 -30 0 -16 5 -30 10 -30 14 0 12 56 -2 67 -7 5 -23 10 -35 11 -20
1 -23 -4 -23 -39z"/>
<path d="M1662 5728 c-27 -27 0 -77 34 -64 10 4 14 2 11 -6 -2 -7 -15 -12 -28
-10 -17 2 -21 0 -12 -9 6 -6 19 -9 29 -7 15 2 20 14 22 53 3 47 1 51 -21 53
-13 1 -29 -4 -35 -10z m46 -31 c2 -12 -3 -17 -17 -17 -15 0 -21 6 -21 21 0 25
33 22 38 -4z"/>
<path d="M1752 5728 c-14 -14 2 -38 24 -38 8 0 14 -5 14 -11 0 -7 -10 -9 -27
-4 -21 5 -25 4 -17 -5 14 -14 56 -9 62 7 2 7 -8 18 -22 24 -27 13 -26 32 1 22
11 -4 14 -3 9 5 -9 15 -29 15 -44 0z"/>
<path d="M12961 5712 c-1 -24 -5 -31 -13 -26 -8 5 -7 0 2 -11 14 -18 15 -18
18 3 2 12 1 32 -1 45 -3 15 -5 12 -6 -11z"/>
<path d="M13180 5736 c0 -2 11 -6 25 -8 13 -3 22 -1 19 3 -5 9 -44 13 -44 5z"/>
<path d="M2912 5721 c-8 -4 -12 -21 -10 -37 2 -23 8 -29 27 -29 31 0 50 28 35
53 -13 20 -34 25 -52 13z m38 -30 c0 -11 -4 -22 -9 -25 -12 -8 -34 21 -26 34
11 17 35 11 35 -9z"/>
<path d="M2992 5686 c1 -37 2 -38 5 -8 6 42 33 44 33 2 0 -16 5 -30 10 -30 6
0 10 14 10 30 0 42 27 40 33 -2 4 -27 4 -25 3 7 l-1 40 -47 1 -48 1 2 -41z"/>
<path d="M3121 5671 c1 -32 4 -48 7 -36 4 11 16 20 26 20 51 0 43 69 -8 71
-25 1 -26 -1 -25 -55z m49 20 c0 -11 -5 -23 -11 -27 -15 -9 -33 12 -26 30 9
23 37 20 37 -3z"/>
<path d="M3215 5720 c-3 -6 4 -10 17 -10 22 -1 22 -2 -5 -16 -35 -19 -30 -39
11 -41 29 -1 32 2 32 26 0 40 -38 69 -55 41z m27 -52 c-6 -6 -15 -8 -19 -4 -4
4 -1 11 7 16 19 12 27 3 12 -12z"/>
<path d="M3292 5686 c1 -38 2 -38 5 -8 5 42 35 40 45 -3 6 -26 6 -25 5 10 -2
36 -5 40 -29 41 -26 1 -28 -1 -26 -40z"/>
<path d="M3370 5721 c0 -4 5 -22 11 -40 8 -24 8 -35 -1 -46 -10 -12 -10 -15 3
-15 13 0 22 16 54 98 3 6 1 12 -4 12 -5 0 -14 -12 -20 -27 l-10 -28 -11 28
c-11 26 -22 36 -22 18z"/>
<path d="M3531 5685 c1 -37 2 -38 8 -10 9 42 41 47 41 6 0 -17 5 -31 10 -31
13 0 13 40 0 60 -5 8 -21 15 -35 15 -23 1 -25 -2 -24 -40z"/>
<path d="M3682 5721 c-8 -4 -12 -21 -10 -37 2 -23 8 -29 27 -29 31 0 50 28 35
53 -13 20 -34 25 -52 13z m36 -33 c-4 -27 -23 -34 -32 -13 -8 21 1 35 20 35
10 0 14 -8 12 -22z"/>
<path d="M11057 5719 c7 -7 15 -10 18 -7 3 3 -2 9 -12 12 -14 6 -15 5 -6 -5z"/>
<path d="M11140 5723 c8 -3 18 -11 22 -17 5 -7 8 -4 8 7 0 11 -7 17 -22 16
-16 0 -18 -2 -8 -6z"/>
<path d="M11210 5722 c8 -4 17 -16 18 -27 6 -33 14 -33 10 0 -2 21 -9 31 -23
32 -15 2 -16 1 -5 -5z"/>
<path d="M11308 5723 c6 -2 18 -2 25 0 6 3 1 5 -13 5 -14 0 -19 -2 -12 -5z"/>
<path d="M291 5688 c2 -30 2 -31 6 -5 5 34 30 36 36 2 4 -23 4 -23 3 2 -1 21
-7 29 -23 31 -20 3 -23 -1 -22 -30z"/>
<path d="M13080 5711 c0 -6 4 -13 10 -16 6 -3 7 1 4 9 -7 18 -14 21 -14 7z"/>
<path d="M13314 5706 c-9 -23 3 -46 23 -45 17 1 17 2 1 6 -21 5 -24 43 -4 43
8 0 17 -5 19 -10 3 -6 4 -5 3 2 -4 19 -35 22 -42 4z"/>
<path d="M11096 5696 c6 -16 4 -18 -19 -14 -15 3 -24 1 -21 -3 7 -13 42 -11
50 2 3 6 1 16 -5 22 -9 9 -10 7 -5 -7z"/>
<path d="M11120 5699 c0 -5 5 -7 10 -4 6 3 10 8 10 11 0 2 -4 4 -10 4 -5 0
-10 -5 -10 -11z"/>
<path d="M11190 5691 c0 -10 19 -25 25 -20 1 2 -3 10 -11 17 -8 7 -14 8 -14 3z"/>
<path d="M13106 5685 c-9 -26 -7 -32 5 -12 6 10 9 21 6 23 -2 3 -7 -2 -11 -11z"/>
<path d="M13215 5688 c6 -14 2 -18 -16 -19 -19 -1 -20 -2 -5 -6 25 -7 44 13
27 30 -10 10 -11 9 -6 -5z"/>
<path d="M11138 5673 c6 -2 18 -2 25 0 6 3 1 5 -13 5 -14 0 -19 -2 -12 -5z"/>
<path d="M11308 5673 c7 -3 16 -2 19 1 4 3 -2 6 -13 5 -11 0 -14 -3 -6 -6z"/>
<path d="M202 5580 c0 -19 2 -27 5 -17 2 9 2 25 0 35 -3 9 -5 1 -5 -18z"/>
<path d="M368 5573 c5 -21 7 -23 10 -9 2 10 0 22 -6 28 -6 6 -7 0 -4 -19z"/>
<path d="M408 5573 c7 -3 16 -2 19 1 4 3 -2 6 -13 5 -11 0 -14 -3 -6 -6z"/>
<path d="M12983 5543 c82 -2 212 -2 290 0 78 1 12 3 -148 3 -159 0 -223 -2
-142 -3z"/>
<path d="M2674 5250 c0 -107 2 -151 3 -97 2 53 2 141 0 195 -1 53 -3 9 -3 -98z"/>
<path d="M250 5301 c-15 -30 -12 -38 6 -13 19 28 34 20 34 -18 0 -31 30 -56
55 -47 7 3 18 0 24 -6 8 -8 11 -8 11 1 0 12 -13 16 -38 13 -21 -3 -42 19 -42
43 0 22 -17 46 -32 46 -4 0 -12 -9 -18 -19z"/>
<path d="M843 5260 c0 -30 2 -43 4 -27 2 15 2 39 0 55 -2 15 -4 2 -4 -28z"/>
<path d="M774 5276 c-3 -8 -4 -27 -1 -43 3 -23 4 -21 6 10 0 23 5 36 11 32 6
-3 10 -1 10 4 0 16 -20 13 -26 -3z"/>
<path d="M990 5286 c0 -2 9 -6 20 -9 11 -3 18 -1 14 4 -5 9 -34 13 -34 5z"/>
<path d="M973 5251 c2 -29 31 -51 47 -35 8 8 4 10 -12 10 -15 -1 -24 7 -29 24
-8 25 -8 25 -6 1z"/>
<path d="M1060 5266 c0 -2 9 -6 20 -9 11 -3 18 -1 14 4 -5 9 -34 13 -34 5z"/>
<path d="M1122 5240 c0 -19 2 -27 5 -17 2 9 2 25 0 35 -3 9 -5 1 -5 -18z"/>
<path d="M1149 5261 c8 -5 20 -7 27 -4 8 3 14 -6 17 -21 4 -26 4 -26 3 1 -1
23 -6 28 -31 30 -20 1 -25 -1 -16 -6z"/>
<path d="M1223 5230 c0 -25 2 -35 4 -22 2 12 2 32 0 45 -2 12 -4 2 -4 -23z"/>
<path d="M1240 5266 c0 -2 7 -7 16 -10 8 -3 12 -2 9 4 -6 10 -25 14 -25 6z"/>
<path d="M1308 5263 c7 -3 16 -2 19 1 4 3 -2 6 -13 5 -11 0 -14 -3 -6 -6z"/>
<path d="M1376 5262 c7 -4 14 -18 17 -32 4 -21 4 -20 6 8 1 24 -3 32 -16 32
-12 0 -14 -3 -7 -8z"/>
<path d="M1566 5262 c7 -4 14 -18 17 -32 4 -21 4 -20 6 8 1 24 -3 32 -16 32
-12 0 -14 -3 -7 -8z"/>
<path d="M1654 5256 c-9 -24 4 -48 23 -44 12 2 18 12 18 28 0 29 -32 41 -41
16z m36 -16 c0 -11 -7 -20 -15 -20 -8 0 -15 9 -15 20 0 11 7 20 15 20 8 0 15
-9 15 -20z"/>
<path d="M250 5252 c0 -15 56 -72 71 -72 8 0 4 7 -8 15 -12 8 -31 27 -42 41
-12 15 -21 22 -21 16z"/>
<path d="M1075 5220 c-16 -7 -17 -9 -3 -9 9 -1 20 4 23 9 7 11 7 11 -20 0z"/>
<path d="M1250 5220 c-9 -6 -10 -10 -3 -10 6 0 15 5 18 10 8 12 4 12 -15 0z"/>
<path d="M1298 5213 c7 -3 16 -2 19 1 4 3 -2 6 -13 5 -11 0 -14 -3 -6 -6z"/>
<path d="M2930 5181 c0 -44 19 -58 22 -16 0 14 1 30 2 37 1 6 -5 13 -11 16 -9
2 -13 -9 -13 -37z"/>
<path d="M2992 5196 c-2 -24 -4 -27 -17 -16 -19 16 -19 1 0 -24 20 -26 27 -16
22 30 -3 30 -4 32 -5 10z"/>
<path d="M6050 5184 c-7 -19 -9 -38 -6 -41 3 -4 6 -1 6 5 0 7 9 12 20 12 11 0
20 -4 20 -10 0 -5 4 -10 9 -10 5 0 2 18 -6 40 -9 22 -20 40 -24 40 -4 0 -13
-16 -19 -36z m30 1 c0 -8 -4 -15 -10 -15 -5 0 -10 7 -10 15 0 8 5 15 10 15 6
0 10 -7 10 -15z"/>
<path d="M6163 5180 c0 -25 2 -35 4 -22 2 12 2 32 0 45 -2 12 -4 2 -4 -23z"/>
<path d="M6233 5180 c0 -25 2 -35 4 -22 2 12 2 32 0 45 -2 12 -4 2 -4 -23z"/>
<path d="M7227 5213 c-4 -3 -7 -19 -7 -34 0 -29 33 -50 51 -32 6 6 1 9 -13 9
-18 -1 -23 4 -23 24 0 19 5 25 22 24 12 0 20 3 17 8 -6 10 -38 11 -47 1z"/>
<path d="M8837 5213 c-13 -13 -7 -31 13 -36 11 -3 20 -11 20 -17 0 -7 -8 -10
-20 -7 -11 3 -18 1 -14 -4 3 -5 14 -9 25 -9 26 0 25 37 -1 45 -11 3 -20 11
-20 17 0 6 9 8 20 5 11 -3 20 -1 20 4 0 10 -33 12 -43 2z"/>
<path d="M9790 5205 c-15 -18 -10 -45 12 -59 14 -8 22 -7 35 8 17 18 17 18 -5
5 -19 -12 -24 -12 -32 1 -17 26 -7 45 23 43 15 -1 25 2 22 8 -9 14 -41 11 -55
-6z"/>
<path d="M10741 5178 c1 -24 3 -36 6 -27 2 10 13 19 24 22 28 7 21 41 -9 45
-20 3 -22 -1 -21 -40z m39 17 c0 -8 -7 -15 -15 -15 -8 0 -15 7 -15 15 0 8 7
15 15 15 8 0 15 -7 15 -15z"/>
<path d="M11043 5180 c0 -25 2 -35 4 -22 2 12 2 32 0 45 -2 12 -4 2 -4 -23z"/>
<path d="M11107 5213 c-4 -3 -7 -19 -7 -34 0 -29 33 -50 51 -32 6 6 1 9 -13 9
-18 -1 -23 4 -23 24 0 19 5 25 22 24 12 0 20 3 17 8 -6 10 -38 11 -47 1z"/>
<path d="M11293 5180 c0 -25 2 -35 4 -22 2 12 2 32 0 45 -2 12 -4 2 -4 -23z"/>
<path d="M12649 5193 c-21 -60 -21 -59 -8 -45 16 15 49 16 49 0 0 -6 2 -9 5
-7 7 8 -17 79 -27 79 -5 0 -13 -12 -19 -27z m25 -8 c3 -9 0 -15 -9 -15 -9 0
-12 6 -9 15 4 8 7 15 9 15 2 0 5 -7 9 -15z"/>
<path d="M7508 5205 c-6 -7 3 -65 11 -65 7 0 7 58 -1 65 -2 3 -7 3 -10 0z"/>
<path d="M8897 5204 c-9 -10 9 -58 24 -62 12 -3 12 -2 0 6 -8 6 -12 19 -8 31
5 20 -5 36 -16 25z"/>
<path d="M9008 5205 c-6 -7 3 -65 11 -65 7 0 7 58 -1 65 -2 3 -7 3 -10 0z"/>
<path d="M9898 5205 c-6 -7 3 -65 11 -65 7 0 7 58 -1 65 -2 3 -7 3 -10 0z"/>
<path d="M10938 5205 c-6 -7 3 -65 11 -65 7 0 7 58 -1 65 -2 3 -7 3 -10 0z"/>
<path d="M12777 5204 c-9 -10 9 -58 24 -62 12 -3 12 -2 0 6 -8 6 -12 19 -8 31
5 20 -5 36 -16 25z"/>
<path d="M3030 5192 c17 -8 26 -42 11 -42 -5 0 -12 6 -14 13 -3 7 -6 5 -6 -5
-1 -12 6 -18 19 -18 16 0 20 7 20 30 0 25 -4 30 -22 29 -17 0 -19 -2 -8 -7z"/>
<path d="M3082 5170 c0 -19 2 -27 5 -17 2 9 2 25 0 35 -3 9 -5 1 -5 -18z"/>
<path d="M3109 5186 c5 -6 11 -20 14 -31 4 -15 5 -13 6 8 0 15 5 27 10 27 5 0
12 -12 14 -27 4 -27 4 -26 6 4 1 29 -1 32 -29 31 -20 -1 -27 -5 -21 -12z"/>
<path d="M3184 5186 c-9 -24 3 -46 26 -46 11 0 20 4 20 9 0 5 -7 8 -16 7 -9 0
-18 7 -19 17 -3 18 20 24 28 7 3 -6 4 -5 3 2 -4 19 -35 22 -42 4z"/>
<path d="M6124 5185 c-8 -20 2 -45 18 -44 10 0 10 2 1 6 -7 2 -13 13 -13 23 0
10 6 21 13 23 9 4 9 6 -1 6 -7 1 -15 -6 -18 -14z"/>
<path d="M6194 5185 c-8 -20 2 -45 18 -44 10 0 10 2 1 6 -7 2 -13 13 -13 23 0
10 6 21 13 23 9 4 9 6 -1 6 -7 1 -15 -6 -18 -14z"/>
<path d="M6261 5168 c2 -28 2 -29 6 -8 3 14 10 28 17 32 7 5 5 8 -6 8 -14 0
-18 -8 -17 -32z"/>
<path d="M6304 5186 c-9 -24 3 -46 26 -46 11 0 20 4 20 9 0 5 -7 8 -16 7 -9 0
-18 7 -19 17 -3 18 20 24 28 7 3 -6 4 -5 3 2 -4 19 -35 22 -42 4z"/>
<path d="M6370 5189 c0 -7 8 -18 18 -26 16 -14 16 -14 0 -9 -10 3 -18 1 -18
-4 0 -6 9 -10 20 -10 25 0 26 25 3 35 -17 7 -16 8 2 15 19 8 19 9 -2 9 -13 1
-23 -4 -23 -10z"/>
<path d="M6430 5185 c0 -8 5 -15 11 -15 5 0 8 4 4 9 -3 5 3 12 12 14 14 4 13
5 -4 6 -14 1 -23 -5 -23 -14z"/>
<path d="M7304 5185 c-8 -21 2 -45 19 -45 8 0 20 7 27 15 10 12 10 18 0 30 -7
8 -19 15 -27 15 -7 0 -16 -7 -19 -15z m36 -15 c0 -21 -15 -27 -25 -10 -7 12 2
30 16 30 5 0 9 -9 9 -20z"/>
<path d="M7373 5176 c1 -17 9 -31 17 -33 10 -3 11 -2 4 4 -7 4 -14 19 -17 33
-4 22 -5 21 -4 -4z"/>
<path d="M7412 5170 c0 -19 2 -27 5 -17 2 9 2 25 0 35 -3 9 -5 1 -5 -18z"/>
<path d="M7442 5170 c0 -19 2 -27 5 -17 2 9 2 25 0 35 -3 9 -5 1 -5 -18z"/>
<path d="M7466 5193 c7 -4 14 -19 17 -33 4 -22 5 -21 4 4 -1 17 -9 31 -17 33
-10 3 -11 2 -4 -4z"/>
<path d="M7551 5168 c2 -28 2 -29 6 -8 3 14 10 28 17 32 7 5 5 8 -6 8 -14 0
-18 -8 -17 -32z"/>
<path d="M7596 5185 c4 -11 8 -30 8 -42 1 -32 10 -28 24 10 14 40 15 63 1 27
l-10 -25 -15 25 c-10 15 -13 17 -8 5z"/>
<path d="M8952 5194 c9 -3 19 -11 22 -19 7 -19 -14 -31 -25 -14 -7 11 -9 10
-9 -3 0 -13 8 -18 26 -18 22 0 25 4 22 28 -2 21 -9 27 -28 29 -14 1 -18 -1 -8
-3z"/>
<path d="M9044 5186 c-9 -24 3 -46 26 -46 11 0 20 4 20 9 0 5 -7 8 -16 7 -9 0
-18 7 -19 17 -3 18 20 24 28 7 3 -6 4 -5 3 2 -4 19 -35 22 -42 4z"/>
<path d="M9860 5170 c0 -16 5 -30 10 -30 6 0 10 14 10 30 0 17 -4 30 -10 30
-5 0 -10 -13 -10 -30z"/>
<path d="M9941 5173 c5 -14 8 -32 5 -40 -3 -7 -1 -13 3 -13 5 0 14 14 20 31
14 40 13 63 -1 29 l-10 -25 -9 23 c-4 12 -11 22 -13 22 -3 0 -1 -12 5 -27z"/>
<path d="M10814 5186 c-9 -24 4 -48 23 -44 12 2 18 12 18 28 0 29 -32 41 -41
16z m34 -13 c-5 -25 -28 -28 -28 -4 0 12 6 21 16 21 9 0 14 -7 12 -17z"/>
<path d="M10875 5191 c-3 -6 5 -15 17 -22 22 -12 22 -12 3 -20 -19 -8 -19 -9
-1 -6 28 3 31 24 4 33 -22 7 -22 7 -3 15 16 6 17 8 3 8 -9 1 -19 -3 -23 -8z"/>
<path d="M10990 5192 c17 -8 26 -42 11 -42 -5 0 -12 6 -14 13 -3 7 -6 5 -6 -5
-1 -12 6 -18 19 -18 16 0 20 7 20 30 0 25 -4 30 -22 29 -17 0 -19 -2 -8 -7z"/>
<path d="M11184 5185 c-8 -21 2 -45 19 -45 8 0 20 7 27 15 10 12 10 18 0 30
-7 8 -19 15 -27 15 -7 0 -16 -7 -19 -15z m36 -15 c0 -11 -4 -20 -9 -20 -14 0
-23 18 -16 30 10 17 25 11 25 -10z"/>
<path d="M11254 5185 c-8 -20 2 -45 18 -44 10 0 10 2 1 6 -7 2 -13 13 -13 23
0 10 6 21 13 23 9 4 9 6 -1 6 -7 1 -15 -6 -18 -14z"/>
<path d="M11324 5186 c-9 -23 3 -46 23 -45 17 1 17 2 1 6 -21 5 -24 43 -4 43
8 0 17 -5 19 -10 3 -6 4 -5 3 2 -4 19 -35 22 -42 4z"/>
<path d="M12716 5185 c-8 -23 4 -45 25 -45 10 0 19 4 19 9 0 5 -8 8 -17 7 -10
0 -18 6 -18 14 0 8 8 14 18 14 9 -1 17 2 17 7 0 15 -38 10 -44 -6z"/>
<path d="M12822 5170 c0 -19 2 -27 5 -17 2 9 2 25 0 35 -3 9 -5 1 -5 -18z"/>
<path d="M12854 5186 c-9 -24 4 -48 23 -44 12 2 18 12 18 28 0 29 -32 41 -41
16z m36 -16 c0 -11 -7 -20 -15 -20 -8 0 -15 9 -15 20 0 11 7 20 15 20 8 0 15
-9 15 -20z"/>
<path d="M12922 5170 c0 -19 2 -27 5 -17 2 9 2 25 0 35 -3 9 -5 1 -5 -18z"/>
<path d="M12946 5193 c7 -4 14 -19 17 -33 4 -22 5 -21 4 4 -1 17 -9 31 -17 33
-10 3 -11 2 -4 -4z"/>
<path d="M6460 5160 c0 -7 -7 -10 -15 -6 -8 3 -15 1 -15 -4 0 -13 37 -13 45
-1 3 5 1 12 -5 16 -5 3 -10 1 -10 -5z"/>
<path d="M192 5100 c0 -19 2 -27 5 -17 2 9 2 25 0 35 -3 9 -5 1 -5 -18z"/>
<path d="M258 5113 c7 -3 16 -2 19 1 4 3 -2 6 -13 5 -11 0 -14 -3 -6 -6z"/>
<path d="M378 5093 c5 -21 7 -23 10 -9 2 10 0 22 -6 28 -6 6 -7 0 -4 -19z"/>
<path d="M404 5105 c-4 -9 -1 -22 6 -28 10 -9 11 -9 6 1 -5 7 -1 12 9 12 9 0
15 5 13 12 -7 19 -27 21 -34 3z"/>
<path d="M352 5090 c0 -14 2 -19 5 -12 2 6 2 18 0 25 -3 6 -5 1 -5 -13z"/>
<path d="M326 5083 c-6 -14 -5 -15 5 -6 7 7 10 15 7 18 -3 3 -9 -2 -12 -12z"/>
<path d="M794 4908 c-19 -23 -19 -23 2 -5 11 9 31 17 44 17 13 0 33 -8 44 -17
21 -18 21 -18 2 5 -11 13 -30 22 -46 22 -16 0 -35 -9 -46 -22z"/>
<path d="M851 4886 c-1 -13 -6 -16 -18 -11 -15 5 -16 4 -5 -6 15 -16 37 2 29
23 -4 8 -6 6 -6 -6z"/>
<path d="M1002 4875 c0 -16 2 -22 5 -12 2 9 2 23 0 30 -3 6 -5 -1 -5 -18z"/>
<path d="M1059 4870 c-3 -28 -8 -35 -26 -34 -12 0 -20 -3 -17 -8 8 -13 30 -9
43 6 7 8 11 27 9 43 -4 26 -4 26 -9 -7z"/>
<path d="M771 4864 c-1 -23 33 -64 52 -63 9 0 9 2 0 6 -7 2 -13 11 -13 19 0 8
-5 13 -12 12 -6 -2 -15 8 -19 22 -6 21 -7 22 -8 4z"/>
<path d="M1085 4871 c-3 -5 0 -13 6 -17 7 -4 9 -3 5 4 -3 6 2 13 11 15 16 4
16 5 1 6 -9 0 -19 -3 -23 -8z"/>
<path d="M1160 4873 c8 -3 19 -11 23 -17 6 -7 7 -6 4 4 -2 8 -12 16 -23 17
-13 2 -15 1 -4 -4z"/>
<path d="M1211 4848 c2 -28 2 -29 6 -8 3 14 10 28 17 32 7 5 5 8 -6 8 -14 0
-18 -8 -17 -32z"/>
<path d="M1255 4871 c-3 -5 0 -13 6 -17 7 -4 9 -3 5 4 -3 6 2 13 11 15 16 4
16 5 1 6 -9 0 -19 -3 -23 -8z"/>
<path d="M1140 4849 c0 -5 5 -7 10 -4 6 3 10 8 10 11 0 2 -4 4 -10 4 -5 0 -10
-5 -10 -11z"/>
<path d="M2940 4851 c0 -6 4 -13 10 -16 6 -3 7 1 4 9 -7 18 -14 21 -14 7z"/>
<path d="M3150 4856 c0 -2 9 -6 20 -9 11 -3 18 -1 14 4 -5 9 -34 13 -34 5z"/>
<path d="M3590 4851 c0 -6 4 -13 10 -16 6 -3 7 1 4 9 -7 18 -14 21 -14 7z"/>
<path d="M4020 4851 c0 -6 4 -13 10 -16 6 -3 7 1 4 9 -7 18 -14 21 -14 7z"/>
<path d="M6040 4818 c0 -49 5 -47 13 5 3 20 2 37 -4 37 -5 0 -9 -19 -9 -42z"/>
<path d="M6108 4853 c-2 -5 -1 -24 3 -43 l6 -35 2 43 c1 39 -3 52 -11 35z"/>
<path d="M6152 4848 c-7 -7 -12 -19 -11 -27 0 -11 3 -10 8 4 4 11 19 23 32 26
21 6 21 7 4 8 -12 1 -26 -4 -33 -11z"/>
<path d="M6230 4851 c0 -6 4 -13 10 -16 6 -3 7 1 4 9 -7 18 -14 21 -14 7z"/>
<path d="M6286 4844 c-4 -9 -4 -19 -1 -22 3 -3 6 1 6 9 1 8 5 -2 9 -21 l7 -35
2 43 c1 42 -11 56 -23 26z"/>
<path d="M7222 4830 c0 -19 2 -27 5 -17 2 9 2 25 0 35 -3 9 -5 1 -5 -18z"/>
<path d="M7543 4820 c0 -25 2 -35 4 -22 2 12 2 32 0 45 -2 12 -4 2 -4 -23z"/>
<path d="M7604 4848 c-7 -11 22 -39 40 -37 6 0 1 5 -12 11 -13 7 -21 17 -18
25 7 16 0 17 -10 1z"/>
<path d="M8830 4821 c0 -23 2 -41 4 -41 8 0 12 71 4 76 -4 3 -8 -13 -8 -35z"/>
<path d="M8897 4823 c8 -52 13 -54 13 -5 0 23 -4 42 -9 42 -6 0 -7 -17 -4 -37z"/>
<path d="M9790 4855 c0 -5 5 -17 10 -25 5 -8 10 -10 10 -5 0 6 -5 17 -10 25
-5 8 -10 11 -10 5z"/>
<path d="M9846 4843 c-6 -14 -5 -15 5 -6 7 7 10 15 7 18 -3 3 -9 -2 -12 -12z"/>
<path d="M10748 4853 c6 -2 18 -2 25 0 6 3 1 5 -13 5 -14 0 -19 -2 -12 -5z"/>
<path d="M10818 4853 c6 -2 18 -2 25 0 6 3 1 5 -13 5 -14 0 -19 -2 -12 -5z"/>
<path d="M10893 4854 c11 -3 16 -12 13 -20 -3 -7 -1 -16 3 -18 5 -3 8 4 7 17
-1 14 -8 22 -21 24 -17 2 -17 1 -2 -3z"/>
<path d="M10976 4845 c4 -10 -3 -26 -16 -41 l-23 -24 29 1 c23 0 25 2 11 8
-17 6 -17 8 -3 20 18 15 21 37 6 46 -6 3 -7 -1 -4 -10z"/>
<path d="M11047 4823 c3 -32 2 -35 -18 -30 -16 4 -19 3 -11 -5 19 -19 41 -1
40 32 -1 17 -4 33 -8 35 -4 2 -5 -12 -3 -32z"/>
<path d="M11116 4847 c3 -10 9 -15 12 -12 3 3 0 11 -7 18 -10 9 -11 8 -5 -6z"/>
<path d="M11184 4840 c0 -13 4 -16 10 -10 7 7 7 13 0 20 -6 6 -10 3 -10 -10z"/>
<path d="M11298 4853 c6 -2 18 -2 25 0 6 3 1 5 -13 5 -14 0 -19 -2 -12 -5z"/>
<path d="M835 4843 c31 -8 42 -22 25 -33 -8 -5 -10 -10 -4 -10 6 0 19 9 29 20
15 17 16 20 3 15 -9 -4 -19 -2 -23 4 -3 6 -16 10 -28 10 -20 -1 -20 -2 -2 -6z"/>
<path d="M1115 4841 c3 -5 -2 -12 -10 -14 -12 -4 -12 -5 1 -3 19 1 32 26 14
26 -6 0 -9 -4 -5 -9z"/>
<path d="M1285 4841 c3 -5 -2 -12 -10 -14 -12 -4 -12 -5 1 -3 19 1 32 26 14
26 -6 0 -9 -4 -5 -9z"/>
<path d="M3410 4822 c0 -17 3 -33 8 -35 9 -6 8 50 -1 60 -4 3 -7 -8 -7 -25z"/>
<path d="M4400 4822 c0 -17 3 -33 8 -35 9 -6 8 50 -1 60 -4 3 -7 -8 -7 -25z"/>
<path d="M7668 4845 c-6 -7 3 -65 11 -65 7 0 7 58 -1 65 -2 3 -7 3 -10 0z"/>
<path d="M7768 4845 c-6 -7 3 -65 11 -65 7 0 7 58 -1 65 -2 3 -7 3 -10 0z"/>
<path d="M7302 4810 c0 -19 2 -27 5 -17 2 9 2 25 0 35 -3 9 -5 1 -5 -18z"/>
<path d="M7326 4833 c7 -4 14 -19 17 -33 4 -22 5 -21 4 4 -1 17 -9 31 -17 33
-10 3 -11 2 -4 -4z"/>
<path d="M7372 4810 c0 -19 2 -27 5 -17 2 9 2 25 0 35 -3 9 -5 1 -5 -18z"/>
<path d="M7398 4833 c7 -3 16 -2 19 1 4 3 -2 6 -13 5 -11 0 -14 -3 -6 -6z"/>
<path d="M7435 4830 c-4 -6 -4 -14 -1 -17 3 -4 6 -1 6 5 0 15 26 16 33 2 3 -6
4 -5 3 2 -3 17 -32 22 -41 8z"/>
<path d="M7505 4830 c-3 -6 1 -7 9 -4 18 7 21 14 7 14 -6 0 -13 -4 -16 -10z"/>
<path d="M7720 4832 c8 -4 17 -16 18 -27 6 -33 14 -33 10 0 -2 21 -9 31 -23
32 -15 2 -16 1 -5 -5z"/>
<path d="M7820 4833 c8 -3 19 -11 23 -17 6 -7 7 -6 4 4 -2 8 -12 16 -23 17
-13 2 -15 1 -4 -4z"/>
<path d="M7877 4833 c-10 -10 -8 -23 4 -23 5 0 8 4 4 9 -3 5 3 12 12 14 14 4
15 5 2 6 -9 0 -19 -2 -22 -6z"/>
<path d="M8932 4810 c0 -19 2 -27 5 -17 2 9 2 25 0 35 -3 9 -5 1 -5 -18z"/>
<path d="M8970 4832 c8 -4 17 -16 18 -27 6 -33 14 -33 10 0 -2 21 -9 31 -23
32 -15 2 -16 1 -5 -5z"/>
<path d="M9021 4808 c2 -30 2 -30 6 -6 2 15 12 29 21 31 12 3 10 5 -5 6 -20 1
-23 -4 -22 -31z"/>
<path d="M9076 4833 c7 -4 14 -19 17 -33 4 -22 5 -21 4 4 -1 17 -9 31 -17 33
-10 3 -11 2 -4 -4z"/>
<path d="M9122 4810 c0 -19 2 -27 5 -17 2 9 2 25 0 35 -3 9 -5 1 -5 -18z"/>
<path d="M9882 4810 c0 -19 2 -27 5 -17 2 9 2 25 0 35 -3 9 -5 1 -5 -18z"/>
<path d="M9928 4833 c7 -3 16 -2 19 1 4 3 -2 6 -13 5 -11 0 -14 -3 -6 -6z"/>
<path d="M9972 4810 c0 -19 2 -27 5 -17 2 9 2 25 0 35 -3 9 -5 1 -5 -18z"/>
<path d="M9998 4831 c6 -3 12 -17 15 -31 l4 -25 2 27 c0 16 8 28 19 31 9 2 2
4 -16 4 -18 0 -29 -3 -24 -6z"/>
<path d="M10072 4810 c0 -19 2 -27 5 -17 2 9 2 25 0 35 -3 9 -5 1 -5 -18z"/>
<path d="M242 4785 c-2 -40 2 -54 18 -68 12 -10 26 -14 33 -10 7 4 30 10 52
13 40 5 40 5 43 53 2 33 0 47 -7 42 -6 -3 -11 -23 -11 -45 0 -37 -1 -38 -42
-42 -70 -7 -77 -2 -81 56 l-3 51 -2 -50z"/>
<path d="M1158 4823 c6 -2 18 -2 25 0 6 3 1 5 -13 5 -14 0 -19 -2 -12 -5z"/>
<path d="M4511 4814 c0 -11 3 -14 6 -6 3 7 2 16 -1 19 -3 4 -6 -2 -5 -13z"/>
<path d="M6060 4824 c0 -6 7 -19 15 -30 8 -10 14 -14 14 -9 0 6 -6 19 -14 29
-8 11 -15 15 -15 10z"/>
<path d="M10760 4826 c0 -2 8 -10 18 -17 15 -13 16 -12 3 4 -13 16 -21 21 -21
13z"/>
<path d="M10827 4812 c-23 -25 -21 -32 6 -31 18 1 18 2 4 6 -18 5 -18 6 -1 24
9 10 15 19 12 19 -3 0 -12 -8 -21 -18z"/>
<path d="M11310 4826 c0 -2 8 -10 18 -17 15 -13 16 -12 3 4 -13 16 -21 21 -21
13z"/>
<path d="M4152 4800 c0 -14 2 -19 5 -12 2 6 2 18 0 25 -3 6 -5 1 -5 -13z"/>
<path d="M4345 4808 c4 -11 0 -18 -12 -21 -15 -4 -16 -5 -1 -6 22 -1 33 18 19
32 -9 9 -11 8 -6 -5z"/>
<path d="M6251 4815 c0 -5 3 -16 8 -23 7 -11 9 -10 14 3 4 9 3 14 -2 10 -5 -3
-12 1 -14 7 -3 7 -6 9 -6 3z"/>
<path d="M9830 4811 c0 -7 -4 -9 -10 -6 -6 4 -7 -1 -3 -11 6 -15 7 -15 15 1 6
9 7 19 4 22 -3 4 -6 1 -6 -6z"/>
<path d="M7700 4801 c0 -10 19 -25 25 -20 1 2 -3 10 -11 17 -8 7 -14 8 -14 3z"/>
<path d="M8950 4801 c0 -10 19 -25 25 -20 1 2 -3 10 -11 17 -8 7 -14 8 -14 3z"/>
<path d="M11190 4801 c0 -8 -8 -11 -20 -8 -11 3 -18 1 -14 -4 3 -5 11 -9 19
-9 16 0 30 18 21 27 -3 4 -6 1 -6 -6z"/>
<path d="M3165 4790 c-16 -7 -17 -9 -3 -9 9 -1 20 4 23 9 7 11 7 11 -20 0z"/>
<path d="M3217 4788 c2 -5 10 -8 18 -8 8 0 16 3 18 8 3 4 -5 7 -18 7 -13 0
-21 -3 -18 -7z"/>
<path d="M3287 4789 c7 -7 15 -10 18 -7 3 3 -2 9 -12 12 -14 6 -15 5 -6 -5z"/>
<path d="M4117 4789 c7 -7 15 -10 18 -7 3 3 -2 9 -12 12 -14 6 -15 5 -6 -5z"/>
<path d="M6158 4788 c5 -5 16 -8 23 -6 8 3 3 7 -10 11 -17 4 -21 3 -13 -5z"/>
<path d="M7250 4790 c-23 -7 -23 -8 -3 -9 12 -1 25 4 28 9 3 6 5 10 3 9 -2 -1
-14 -5 -28 -9z"/>
<path d="M7438 4788 c5 -5 16 -8 23 -6 8 3 3 7 -10 11 -17 4 -21 3 -13 -5z"/>
<path d="M7507 4789 c7 -7 15 -10 18 -7 3 3 -2 9 -12 12 -14 6 -15 5 -6 -5z"/>
<path d="M7607 4788 c2 -5 10 -8 18 -8 8 0 16 3 18 8 3 4 -5 7 -18 7 -13 0
-21 -3 -18 -7z"/>
<path d="M8860 4789 c0 -5 5 -7 10 -4 6 3 10 8 10 11 0 2 -4 4 -10 4 -5 0 -10
-5 -10 -11z"/>
<path d="M9925 4790 c-16 -7 -17 -9 -3 -9 9 -1 20 4 23 9 7 11 7 11 -20 0z"/>
<path d="M10878 4788 c5 -5 16 -8 23 -6 8 3 3 7 -10 11 -17 4 -21 3 -13 -5z"/>
<path d="M11084 4789 c-3 -5 6 -9 20 -9 31 0 34 6 6 13 -11 3 -23 1 -26 -4z"/>
<path d="M4458 4783 c7 -3 16 -2 19 1 4 3 -2 6 -13 5 -11 0 -14 -3 -6 -6z"/>
<path d="M7818 4783 c6 -2 18 -2 25 0 6 3 1 5 -13 5 -14 0 -19 -2 -12 -5z"/>
<path d="M7878 4783 c6 -2 18 -2 25 0 6 3 1 5 -13 5 -14 0 -19 -2 -12 -5z"/>
<path d="M10748 4783 c6 -2 18 -2 25 0 6 3 1 5 -13 5 -14 0 -19 -2 -12 -5z"/>
<path d="M11233 4783 c9 -2 23 -2 30 0 6 3 -1 5 -18 5 -16 0 -22 -2 -12 -5z"/>
<path d="M11298 4783 c6 -2 18 -2 25 0 6 3 1 5 -13 5 -14 0 -19 -2 -12 -5z"/>
<path d="M2674 4470 c0 -107 2 -151 3 -97 2 53 2 141 0 195 -1 53 -3 9 -3 -98z"/>
<path d="M292 4620 c0 -19 2 -27 5 -17 2 9 2 25 0 35 -3 9 -5 1 -5 -18z"/>
<path d="M318 4613 c5 -21 7 -23 10 -9 2 10 0 22 -6 28 -6 6 -7 0 -4 -19z"/>
<path d="M358 4632 c11 -7 11 -10 -2 -15 -9 -4 -16 -12 -16 -19 0 -9 3 -9 10
2 9 13 11 13 20 0 9 -12 10 -10 8 9 -2 14 -10 26 -18 28 -12 4 -12 3 -2 -5z"/>
<path d="M238 4598 c5 -5 16 -8 23 -6 8 3 3 7 -10 11 -17 4 -21 3 -13 -5z"/>
<path d="M1010 4500 c0 -5 5 -10 11 -10 5 0 7 5 4 10 -3 6 -8 10 -11 10 -2 0
-4 -4 -4 -10z"/>
<path d="M1061 4482 c-1 -24 -5 -31 -13 -26 -8 5 -7 0 2 -11 14 -18 15 -18 18
3 2 12 1 32 -1 45 -3 15 -5 12 -6 -11z"/>
<path d="M818 4483 c18 -2 45 -2 60 0 15 2 0 4 -33 4 -33 0 -45 -2 -27 -4z"/>
<path d="M1093 4466 c1 -17 9 -31 17 -33 10 -3 11 -2 4 4 -7 4 -14 19 -17 33
-4 22 -5 21 -4 -4z"/>
<path d="M1132 4460 c0 -19 2 -27 5 -17 2 9 2 25 0 35 -3 9 -5 1 -5 -18z"/>
<path d="M1176 4483 c7 -4 14 -19 17 -33 4 -22 5 -21 4 4 -1 17 -9 31 -17 33
-10 3 -11 2 -4 -4z"/>
<path d="M1278 4483 c7 -3 16 -2 19 1 4 3 -2 6 -13 5 -11 0 -14 -3 -6 -6z"/>
<path d="M1340 4483 c8 -3 19 -11 23 -17 6 -7 7 -6 4 4 -2 8 -12 16 -23 17
-13 2 -15 1 -4 -4z"/>
<path d="M1391 4458 c2 -28 2 -29 6 -8 3 14 10 28 17 32 7 5 5 8 -6 8 -14 0
-18 -8 -17 -32z"/>
<path d="M1435 4481 c-3 -5 0 -13 6 -17 7 -4 9 -3 5 4 -3 6 2 13 11 15 16 4
16 5 1 6 -9 0 -19 -3 -23 -8z"/>
<path d="M2484 4449 c-19 -22 -19 -22 3 -9 18 12 24 12 40 0 16 -13 16 -13 -1
8 -11 12 -20 22 -21 22 -1 0 -10 -10 -21 -21z"/>
<path d="M1464 4452 c3 -6 -2 -13 -11 -15 -16 -4 -16 -5 -1 -6 21 -1 32 15 17
25 -7 4 -9 3 -5 -4z"/>
<path d="M1267 4439 c7 -7 15 -10 18 -7 3 3 -2 9 -12 12 -14 6 -15 5 -6 -5z"/>
<path d="M1338 4433 c7 -3 16 -2 19 1 4 3 -2 6 -13 5 -11 0 -14 -3 -6 -6z"/>
<path d="M242 4288 l3 -53 53 -3 c46 -3 54 0 59 17 3 12 11 17 19 14 10 -4 14
4 14 27 0 26 -3 30 -14 21 -11 -9 -15 -7 -19 9 -4 17 -13 20 -62 20 l-56 0 3
-52z m98 -4 l0 -45 -42 3 c-43 3 -43 3 -46 46 l-3 42 45 0 46 0 0 -46z"/>
<path d="M396 4162 c-2 -4 4 -8 14 -8 10 0 16 4 14 8 -3 4 -9 8 -14 8 -5 0
-11 -4 -14 -8z"/>
<path d="M262 4140 c0 -14 2 -19 5 -12 2 6 2 18 0 25 -3 6 -5 1 -5 -13z"/>
<path d="M348 4143 c7 -3 16 -2 19 1 4 3 -2 6 -13 5 -11 0 -14 -3 -6 -6z"/>
<path d="M400 4126 c7 -7 13 -7 20 0 6 6 3 10 -10 10 -13 0 -16 -4 -10 -10z"/>
<path d="M1018 4123 c12 -2 30 -2 40 0 9 3 -1 5 -23 4 -22 0 -30 -2 -17 -4z"/>
<path d="M1210 4096 c-13 -36 -14 -36 16 -36 22 0 24 3 19 23 -12 37 -24 42
-35 13z m23 -6 c3 -12 0 -20 -8 -20 -8 0 -11 8 -8 20 3 11 7 20 8 20 1 0 5 -9
8 -20z"/>
<path d="M1273 4080 c0 -25 2 -35 4 -22 2 12 2 32 0 45 -2 12 -4 2 -4 -23z"/>
<path d="M1303 4080 c0 -25 2 -35 4 -22 2 12 2 32 0 45 -2 12 -4 2 -4 -23z"/>
<path d="M1362 4078 c1 -38 2 -39 5 -10 2 18 8 30 14 27 5 -3 6 1 3 9 -12 30
-24 16 -22 -26z"/>
<path d="M1613 4080 c0 -25 2 -35 4 -22 2 12 2 32 0 45 -2 12 -4 2 -4 -23z"/>
<path d="M992 4080 c0 -19 2 -27 5 -17 2 9 2 25 0 35 -3 9 -5 1 -5 -18z"/>
<path d="M1481 4076 c-1 -21 -5 -27 -16 -22 -8 3 -15 1 -15 -4 0 -16 30 -12
36 4 3 8 4 23 1 33 -3 11 -5 7 -6 -11z"/>
<path d="M1512 4070 c0 -19 2 -27 5 -17 2 9 2 25 0 35 -3 9 -5 1 -5 -18z"/>
<path d="M1538 4091 c6 -3 12 -17 15 -31 4 -24 4 -24 6 4 1 21 5 27 16 22 8
-3 15 -1 15 4 0 5 -14 8 -31 8 -16 -1 -26 -4 -21 -7z"/>
<path d="M1640 4093 c5 -2 10 -13 10 -23 0 -10 -5 -21 -10 -23 -6 -3 -5 -4 2
-3 7 2 13 13 13 26 0 13 -6 24 -13 26 -7 1 -8 0 -2 -3z"/>
<path d="M1684 4086 c-9 -23 3 -46 23 -45 17 1 17 2 1 6 -21 5 -24 43 -4 43 8
0 17 -5 19 -10 3 -6 4 -5 3 2 -4 19 -35 22 -42 4z"/>
<path d="M1750 4090 c0 -5 7 -7 15 -4 8 4 15 8 15 10 0 2 -7 4 -15 4 -8 0 -15
-4 -15 -10z"/>
<path d="M1400 4062 c6 -13 14 -21 18 -18 3 4 -2 14 -12 24 -18 16 -18 16 -6
-6z"/>
<path d="M1018 4033 c12 -2 30 -2 40 0 9 3 -1 5 -23 4 -22 0 -30 -2 -17 -4z"/>
<path d="M257 3835 c-9 -20 -17 -47 -17 -61 0 -25 1 -25 73 -22 l72 3 -1 33
c-3 53 -28 82 -72 82 -34 0 -40 -4 -55 -35z m101 1 c10 -22 8 -24 -16 -29 -27
-5 -82 1 -82 10 0 2 5 13 10 24 16 29 74 26 88 -5z m-73 -46 c3 -5 17 -10 31
-10 13 0 24 5 24 10 0 6 7 10 15 10 8 0 15 -9 15 -20 0 -18 -7 -20 -60 -20
-53 0 -60 2 -60 20 0 21 24 28 35 10z"/>
<path d="M1018 3743 c12 -2 30 -2 40 0 9 3 -1 5 -23 4 -22 0 -30 -2 -17 -4z"/>
<path d="M1203 3700 c0 -25 2 -35 4 -22 2 12 2 32 0 45 -2 12 -4 2 -4 -23z"/>
<path d="M1270 3730 c0 -5 -9 -10 -19 -10 -10 0 -21 -7 -25 -15 -9 -25 4 -45
30 -43 21 2 24 7 24 40 0 21 -2 38 -5 38 -3 0 -5 -4 -5 -10z m-4 -31 c10 -17
-13 -36 -27 -22 -12 12 -4 33 11 33 5 0 12 -5 16 -11z"/>
<path d="M1722 3723 c1 -10 -1 -24 -5 -30 -12 -19 1 -33 28 -31 27 2 35 28 10
28 -17 0 -20 16 -5 25 14 8 3 25 -16 25 -9 0 -14 -7 -12 -17z m28 3 c0 -3 -4
-8 -10 -11 -5 -3 -10 -1 -10 4 0 6 5 11 10 11 6 0 10 -2 10 -4z m-5 -46 c3 -5
-1 -10 -9 -10 -9 0 -16 5 -16 10 0 6 4 10 9 10 6 0 13 -4 16 -10z"/>
<path d="M1831 3709 c-6 -18 -11 -33 -11 -35 0 -1 9 0 21 3 12 4 25 0 30 -8
11 -18 10 -1 -1 26 -5 11 -9 14 -9 8 -1 -18 -21 -16 -21 2 0 8 5 15 10 15 6 0
10 5 10 10 0 22 -19 8 -29 -21z"/>
<path d="M1940 3731 c0 -5 -9 -11 -21 -14 -15 -4 -20 -12 -17 -28 2 -12 9 -24
16 -25 7 -1 8 0 2 3 -15 7 -12 43 4 43 8 0 17 -12 19 -27 3 -20 4 -15 6 15 0
23 -1 42 -4 42 -3 0 -5 -4 -5 -9z"/>
<path d="M2010 3731 c0 -5 -9 -11 -21 -14 -15 -4 -20 -12 -17 -28 2 -12 9 -24
16 -25 7 -1 8 0 2 3 -15 7 -12 43 4 43 8 0 17 -12 19 -27 3 -20 4 -15 6 15 0
23 -1 42 -4 42 -3 0 -5 -4 -5 -9z"/>
<path d="M992 3700 c0 -19 2 -27 5 -17 2 9 2 25 0 35 -3 9 -5 1 -5 -18z"/>
<path d="M1428 3725 c-6 -7 3 -65 11 -65 7 0 7 58 -1 65 -2 3 -7 3 -10 0z"/>
<path d="M1294 3706 c-9 -23 3 -46 23 -45 16 1 16 2 1 6 -9 2 -16 13 -15 24 1
20 22 26 30 9 3 -6 4 -5 3 2 -4 19 -35 22 -42 4z"/>
<path d="M1362 3690 c0 -19 2 -27 5 -17 2 9 2 25 0 35 -3 9 -5 1 -5 -18z"/>
<path d="M1386 3713 c7 -4 14 -19 17 -33 4 -22 5 -21 4 4 -1 17 -9 31 -17 33
-10 3 -11 2 -4 -4z"/>
<path d="M1498 3713 c7 -3 16 -2 19 1 4 3 -2 6 -13 5 -11 0 -14 -3 -6 -6z"/>
<path d="M1532 3690 c0 -19 2 -27 5 -17 2 9 2 25 0 35 -3 9 -5 1 -5 -18z"/>
<path d="M1564 3706 c-9 -23 3 -46 23 -45 17 1 17 2 1 6 -21 5 -24 43 -4 43 8
0 17 -5 19 -10 3 -6 4 -5 3 2 -4 19 -35 22 -42 4z"/>
<path d="M1625 3711 c-3 -5 0 -13 6 -17 7 -4 9 -3 5 4 -3 6 2 13 11 15 16 4
16 5 1 6 -9 0 -19 -3 -23 -8z"/>
<path d="M2040 3710 c0 -5 7 -7 15 -4 8 4 15 8 15 10 0 2 -7 4 -15 4 -8 0 -15
-4 -15 -10z"/>
<path d="M2084 3706 c-9 -23 3 -46 23 -45 17 1 17 2 1 6 -22 6 -24 43 -2 43 8
0 12 -4 9 -10 -3 -5 -1 -10 5 -10 18 0 6 25 -13 28 -10 2 -20 -4 -23 -12z"/>
<path d="M2145 3711 c-3 -5 0 -13 6 -17 7 -4 9 -3 5 4 -3 6 2 13 11 15 16 4
16 5 1 6 -9 0 -19 -3 -23 -8z"/>
<path d="M2205 3711 c-3 -5 0 -13 6 -17 7 -4 9 -3 5 4 -3 6 2 13 11 15 16 4
16 5 1 6 -9 0 -19 -3 -23 -8z"/>
<path d="M258 3663 c5 -21 7 -23 10 -9 2 10 0 22 -6 28 -6 6 -7 0 -4 -19z"/>
<path d="M1655 3681 c3 -5 -2 -12 -10 -14 -12 -4 -12 -5 1 -3 19 1 32 26 14
26 -6 0 -9 -4 -5 -9z"/>
<path d="M2174 3682 c3 -6 -2 -13 -11 -15 -16 -4 -16 -5 -1 -6 21 -1 32 15 17
25 -7 4 -9 3 -5 -4z"/>
<path d="M2234 3682 c3 -6 -2 -13 -11 -15 -16 -4 -16 -5 -1 -6 21 -1 32 15 17
25 -7 4 -9 3 -5 -4z"/>
<path d="M232 3660 c0 -14 2 -19 5 -12 2 6 2 18 0 25 -3 6 -5 1 -5 -13z"/>
<path d="M366 3653 c-6 -14 -5 -15 5 -6 7 7 10 15 7 18 -3 3 -9 -2 -12 -12z"/>
<path d="M1018 3653 c12 -2 30 -2 40 0 9 3 -1 5 -23 4 -22 0 -30 -2 -17 -4z"/>
<path d="M298 3643 c7 -3 16 -2 19 1 4 3 -2 6 -13 5 -11 0 -14 -3 -6 -6z"/>
<path d="M265 3375 c-14 -13 -25 -34 -24 -47 0 -18 3 -15 12 12 9 26 21 38 47
47 27 9 30 12 12 12 -13 1 -34 -10 -47 -24z"/>
<path d="M340 3386 c0 -2 7 -7 16 -10 8 -3 12 -2 9 4 -6 10 -25 14 -25 6z"/>
<path d="M293 3355 c-3 -9 -3 -19 1 -22 3 -4 6 1 6 10 0 10 7 17 15 17 18 0
19 -11 3 -30 -7 -8 -4 -8 6 2 10 9 15 21 12 27 -10 16 -36 13 -43 -4z"/>
<path d="M1009 3353 c-12 -16 -12 -17 1 -7 8 7 24 14 35 17 19 4 19 5 -1 6
-12 0 -28 -7 -35 -16z"/>
<path d="M1075 3320 c0 -21 3 -36 8 -33 4 2 7 17 7 33 0 16 -3 31 -7 33 -5 3
-8 -12 -8 -33z"/>
<path d="M1202 3320 c1 -32 2 -37 5 -16 l5 29 23 -29 24 -29 -1 45 c-1 45 -1
45 -8 10 -4 -19 -8 -30 -9 -25 -1 6 -10 21 -21 35 l-20 25 2 -45z"/>
<path d="M1653 3320 c0 -25 2 -35 4 -22 2 12 2 32 0 45 -2 12 -4 2 -4 -23z"/>
<path d="M1782 3335 c0 -16 2 -22 5 -12 2 9 2 23 0 30 -3 6 -5 -1 -5 -18z"/>
<path d="M1839 3330 c-3 -28 -8 -35 -26 -34 -12 0 -20 -3 -17 -8 8 -13 30 -9
43 6 7 8 11 27 9 43 -4 26 -4 26 -9 -7z"/>
<path d="M1283 3316 c1 -17 9 -31 17 -33 10 -3 11 -2 4 4 -7 4 -14 19 -17 33
-4 22 -5 21 -4 -4z"/>
<path d="M1322 3310 c0 -19 2 -27 5 -17 2 9 2 25 0 35 -3 9 -5 1 -5 -18z"/>
<path d="M1350 3330 c0 -5 6 -7 14 -4 10 4 16 -3 19 -23 l4 -28 2 28 c1 34 28
36 34 2 4 -23 4 -23 3 2 -1 25 -5 28 -38 30 -21 1 -38 -2 -38 -7z"/>
<path d="M1450 3332 c0 -6 9 -8 19 -5 13 3 21 -1 25 -14 4 -15 5 -15 3 2 -2
20 -47 36 -47 17z"/>
<path d="M1530 3333 c8 -3 19 -11 23 -17 6 -7 7 -6 4 4 -2 8 -12 16 -23 17
-13 2 -15 1 -4 -4z"/>
<path d="M1581 3308 c2 -28 2 -29 6 -8 3 14 10 28 17 32 7 5 5 8 -6 8 -14 0
-18 -8 -17 -32z"/>
<path d="M1690 3330 c0 -5 6 -7 14 -4 10 4 16 -3 19 -23 4 -27 4 -27 6 5 1 26
-3 32 -19 32 -11 0 -20 -4 -20 -10z"/>
<path d="M1865 3331 c-3 -5 0 -13 6 -17 7 -4 9 -3 5 4 -3 6 2 13 11 15 16 4
16 5 1 6 -9 0 -19 -3 -23 -8z"/>
<path d="M1940 3333 c8 -3 19 -11 23 -17 6 -7 7 -6 4 4 -2 8 -12 16 -23 17
-13 2 -15 1 -4 -4z"/>
<path d="M1045 3320 c-4 -6 -11 -7 -17 -4 -7 4 -8 2 -4 -5 6 -9 11 -9 22 0 14
11 18 19 10 19 -3 0 -8 -5 -11 -10z"/>
<path d="M1510 3309 c0 -5 5 -7 10 -4 6 3 10 8 10 11 0 2 -4 4 -10 4 -5 0 -10
-5 -10 -11z"/>
<path d="M1920 3309 c0 -5 5 -7 10 -4 6 3 10 8 10 11 0 2 -4 4 -10 4 -5 0 -10
-5 -10 -11z"/>
<path d="M285 3299 c-4 -6 -13 -8 -21 -5 -8 3 -14 4 -14 1 0 -9 32 -35 43 -35
8 0 7 3 -2 9 -19 12 -5 31 24 31 29 0 43 -19 24 -31 -8 -5 -9 -9 -3 -9 13 0
44 32 44 46 0 5 -5 2 -10 -6 -7 -12 -12 -12 -22 -2 -15 15 -54 16 -63 1z"/>
<path d="M1895 3301 c3 -5 -2 -12 -10 -14 -12 -4 -12 -5 1 -3 19 1 32 26 14
26 -6 0 -9 -4 -5 -9z"/>
<path d="M1009 3288 c7 -10 23 -17 35 -17 20 1 20 2 1 6 -11 3 -27 10 -35 17
-13 10 -13 9 -1 -6z"/>
<path d="M1458 3288 c5 -5 16 -8 23 -6 8 3 3 7 -10 11 -17 4 -21 3 -13 -5z"/>
<path d="M1528 3283 c6 -2 18 -2 25 0 6 3 1 5 -13 5 -14 0 -19 -2 -12 -5z"/>
<path d="M1938 3283 c6 -2 18 -2 25 0 6 3 1 5 -13 5 -14 0 -19 -2 -12 -5z"/>
<path d="M224 3195 c-7 -17 3 -35 19 -34 9 0 9 2 0 6 -7 2 -13 11 -13 18 0 7
6 16 13 18 9 4 9 6 -1 6 -7 1 -15 -6 -18 -14z"/>
<path d="M168 3168 c5 -5 16 -8 23 -6 8 3 3 7 -10 11 -17 4 -21 3 -13 -5z"/>
<path d="M990 2966 c0 -8 4 -18 10 -21 6 -3 7 1 4 9 -5 13 2 16 35 16 l41 0 0
-39 c0 -39 0 -40 -42 -44 l-43 -4 45 1 45 1 3 48 3 47 -50 0 c-38 0 -51 -4
-51 -14z"/>
<path d="M1204 2930 c1 -26 6 -36 20 -38 23 -5 36 14 35 53 -2 29 -2 29 -8 -5
-8 -48 -38 -54 -44 -8 l-4 33 1 -35z"/>
<path d="M1580 2961 c0 -5 -9 -11 -21 -14 -15 -4 -20 -12 -17 -28 2 -12 9 -24
16 -25 7 -1 8 0 2 3 -15 7 -12 43 4 43 8 0 17 -12 19 -27 3 -20 4 -15 6 15 0
23 -1 42 -4 42 -3 0 -5 -4 -5 -9z"/>
<path d="M1642 2930 c1 -45 1 -45 8 -10 4 19 8 31 9 25 1 -5 10 -21 21 -35
l20 -25 -2 45 c-1 32 -2 37 -5 16 l-5 -29 -23 29 -24 29 1 -45z"/>
<path d="M1890 2932 c0 -39 2 -43 23 -40 28 4 36 45 10 55 -10 4 -21 11 -25
17 -4 6 -8 -8 -8 -32z m40 -12 c0 -11 -7 -20 -15 -20 -8 0 -15 9 -15 20 0 11
7 20 15 20 8 0 15 -9 15 -20z"/>
<path d="M1281 2918 c2 -30 2 -31 6 -5 5 34 30 36 36 2 4 -23 4 -23 3 2 -1 21
-7 29 -23 31 -20 3 -23 -1 -22 -30z"/>
<path d="M1381 2926 c-1 -21 -5 -27 -16 -22 -8 3 -15 1 -15 -4 0 -16 30 -12
36 4 3 8 4 23 1 33 -3 11 -5 7 -6 -11z"/>
<path d="M1415 2941 c-3 -5 0 -13 6 -17 7 -4 9 -3 5 4 -3 6 2 13 11 15 16 4
16 5 1 6 -9 0 -19 -3 -23 -8z"/>
<path d="M1474 2936 c-9 -23 3 -46 23 -45 16 1 16 2 1 6 -9 2 -16 13 -15 24 1
20 22 26 30 9 3 -6 4 -5 3 2 -4 19 -35 22 -42 4z"/>
<path d="M1723 2926 c1 -17 9 -31 17 -33 10 -3 11 -2 4 4 -7 4 -14 19 -17 33
-4 22 -5 21 -4 -4z"/>
<path d="M1762 2920 c0 -19 2 -27 5 -17 2 9 2 25 0 35 -3 9 -5 1 -5 -18z"/>
<path d="M1792 2920 c0 -19 2 -27 5 -17 2 9 2 25 0 35 -3 9 -5 1 -5 -18z"/>
<path d="M1819 2941 c8 -5 20 -7 27 -4 8 3 14 -6 17 -21 4 -26 4 -26 3 1 -1
23 -6 28 -31 30 -20 1 -25 -1 -16 -6z"/>
<path d="M1964 2936 c-9 -23 3 -46 23 -45 17 1 17 2 1 6 -22 6 -24 43 -2 43 8
0 12 -4 9 -10 -3 -5 -1 -10 5 -10 18 0 6 25 -13 28 -10 2 -20 -4 -23 -12z"/>
<path d="M2021 2918 c2 -28 2 -29 6 -8 3 14 10 28 17 32 7 5 5 8 -6 8 -14 0
-18 -8 -17 -32z"/>
<path d="M1038 2923 c7 -3 16 -2 19 1 4 3 -2 6 -13 5 -11 0 -14 -3 -6 -6z"/>
<path d="M1444 2912 c3 -6 -2 -13 -11 -15 -16 -4 -16 -5 -1 -6 21 -1 32 15 17
25 -7 4 -9 3 -5 -4z"/>
<path d="M282 2901 c-19 -11 -11 -45 11 -49 9 -2 20 4 23 13 9 21 -16 47 -34
36z m26 -23 c-6 -18 -28 -21 -28 -4 0 9 7 16 16 16 9 0 14 -5 12 -12z"/>
<path d="M332 2882 c1 -34 15 -43 25 -16 3 8 -1 23 -10 31 -14 15 -16 13 -15
-15z"/>
<path d="M263 2830 c-13 -5 -23 -16 -23 -25 0 -11 12 -15 49 -15 28 0 52 4 55
8 15 25 -43 48 -81 32z m72 -20 c4 -6 -12 -10 -40 -10 -28 0 -44 4 -40 10 3 6
21 10 40 10 19 0 37 -4 40 -10z"/>
<path d="M360 2810 c0 -19 11 -26 23 -14 8 8 -3 34 -14 34 -5 0 -9 -9 -9 -20z"/>
<path d="M144 2716 c-7 -18 3 -36 19 -36 7 0 6 4 -3 10 -13 8 -12 10 3 10 10
0 17 5 15 12 -7 19 -27 21 -34 4z"/>
<path d="M361 2703 c1 -22 2 -23 6 -8 3 11 10 23 17 27 7 5 5 8 -6 8 -13 0
-18 -7 -17 -27z"/>
<path d="M191 2698 c-1 -22 2 -25 22 -20 17 5 18 7 5 10 -9 2 -19 11 -21 20
-3 10 -5 6 -6 -10z"/>
<path d="M448 2703 c7 -3 16 -2 19 1 4 3 -2 6 -13 5 -11 0 -14 -3 -6 -6z"/>
<path d="M88 2683 c7 -3 16 -2 19 1 4 3 -2 6 -13 5 -11 0 -14 -3 -6 -6z"/>
<path d="M800 2463 c8 -3 19 -11 23 -17 6 -7 7 -6 4 4 -2 8 -12 16 -23 17 -13
2 -15 1 -4 -4z"/>
<path d="M1001 2408 c1 -24 3 -35 6 -26 2 9 14 18 26 20 34 5 29 42 -5 46 -27
3 -28 2 -27 -40z m49 17 c0 -8 -9 -15 -20 -15 -11 0 -20 7 -20 15 0 8 9 15 20
15 11 0 20 -7 20 -15z"/>
<path d="M1073 2410 c0 -25 2 -35 4 -22 2 12 2 32 0 45 -2 12 -4 2 -4 -23z"/>
<path d="M1380 2446 c0 -2 11 -6 25 -8 13 -3 22 -1 19 3 -5 9 -44 13 -44 5z"/>
<path d="M260 2430 c0 -5 5 -10 10 -10 6 0 10 5 10 10 0 6 -4 10 -10 10 -5 0
-10 -4 -10 -10z"/>
<path d="M350 2430 c0 -5 5 -10 11 -10 5 0 7 5 4 10 -3 6 -8 10 -11 10 -2 0
-4 -4 -4 -10z"/>
<path d="M1568 2435 c-6 -7 3 -65 11 -65 7 0 7 58 -1 65 -2 3 -7 3 -10 0z"/>
<path d="M1096 2422 c7 -4 14 -18 17 -32 4 -21 4 -20 6 8 1 24 -3 32 -16 32
-12 0 -14 -3 -7 -8z"/>
<path d="M1144 2416 c-9 -24 4 -48 23 -44 12 2 18 12 18 28 0 29 -32 41 -41
16z m36 -16 c0 -11 -7 -20 -15 -20 -8 0 -15 9 -15 20 0 11 7 20 15 20 8 0 15
-9 15 -20z"/>
<path d="M1211 2398 c2 -30 2 -31 6 -5 5 34 30 36 36 2 4 -23 4 -23 3 2 -1 21
-7 29 -23 31 -20 3 -23 -1 -22 -30z"/>
<path d="M1290 2423 c8 -3 19 -11 23 -17 6 -7 7 -6 4 4 -2 8 -12 16 -23 17
-13 2 -15 1 -4 -4z"/>
<path d="M1377 2419 c7 -7 15 -10 18 -7 3 3 -2 9 -12 12 -14 6 -15 5 -6 -5z"/>
<path d="M1477 2410 c-5 -19 -9 -22 -16 -12 -5 9 -8 3 -7 -17 1 -17 2 -31 3
-31 7 0 34 63 30 73 -2 6 -7 0 -10 -13z"/>
<path d="M1510 2415 c0 -8 5 -15 11 -15 5 0 8 4 4 9 -3 5 3 12 12 14 14 4 13
5 -4 6 -14 1 -23 -5 -23 -14z"/>
<path d="M1620 2423 c8 -3 19 -11 23 -17 6 -7 7 -6 4 4 -2 8 -12 16 -23 17
-13 2 -15 1 -4 -4z"/>
<path d="M1672 2400 c0 -19 2 -27 5 -17 2 9 2 25 0 35 -3 9 -5 1 -5 -18z"/>
<path d="M1698 2421 c6 -3 12 -17 15 -31 4 -24 4 -24 6 4 1 21 5 27 16 22 8
-3 15 -1 15 4 0 5 -14 8 -31 8 -16 -1 -26 -4 -21 -7z"/>
<path d="M805 2390 c10 -11 20 -20 23 -20 3 0 -3 9 -13 20 -10 11 -20 20 -23
20 -3 0 3 -9 13 -20z"/>
<path d="M845 2400 c-3 -6 1 -7 9 -4 18 7 21 14 7 14 -6 0 -13 -4 -16 -10z"/>
<path d="M1270 2399 c0 -5 5 -7 10 -4 6 3 10 8 10 11 0 2 -4 4 -10 4 -5 0 -10
-5 -10 -11z"/>
<path d="M1416 2396 c6 -16 4 -18 -19 -14 -15 3 -24 1 -21 -3 7 -13 42 -11 50
2 3 6 1 16 -5 22 -9 9 -10 7 -5 -7z"/>
<path d="M1600 2399 c0 -5 5 -7 10 -4 6 3 10 8 10 11 0 2 -4 4 -10 4 -5 0 -10
-5 -10 -11z"/>
<path d="M305 2390 c-3 -5 -1 -10 4 -10 6 0 11 5 11 10 0 6 -2 10 -4 10 -3 0
-8 -4 -11 -10z"/>
<path d="M350 2390 c0 -5 5 -10 11 -10 5 0 7 5 4 10 -3 6 -8 10 -11 10 -2 0
-4 -4 -4 -10z"/>
<path d="M1540 2391 c0 -5 -8 -12 -17 -14 -14 -4 -12 -5 5 -6 13 -1 22 5 22
14 0 8 -2 15 -5 15 -3 0 -5 -4 -5 -9z"/>
<path d="M1288 2373 c6 -2 18 -2 25 0 6 3 1 5 -13 5 -14 0 -19 -2 -12 -5z"/>
<path d="M1618 2373 c6 -2 18 -2 25 0 6 3 1 5 -13 5 -14 0 -19 -2 -12 -5z"/>
<path d="M305 2340 c3 -5 8 -10 11 -10 2 0 4 5 4 10 0 6 -5 10 -11 10 -5 0 -7
-4 -4 -10z"/>
<path d="M350 2339 c0 -5 5 -7 10 -4 6 3 10 8 10 11 0 2 -4 4 -10 4 -5 0 -10
-5 -10 -11z"/>
<path d="M278 2223 c5 -21 7 -23 10 -9 2 10 0 22 -6 28 -6 6 -7 0 -4 -19z"/>
<path d="M508 2223 c5 -21 7 -23 10 -9 2 10 0 22 -6 28 -6 6 -7 0 -4 -19z"/>
<path d="M301 2218 c-1 -22 2 -25 22 -20 17 5 18 7 5 10 -9 2 -19 11 -21 20
-3 10 -5 6 -6 -10z"/>
<path d="M482 2220 c0 -14 2 -19 5 -12 2 6 2 18 0 25 -3 6 -5 1 -5 -13z"/>
<path d="M128 2203 c7 -3 16 -2 19 1 4 3 -2 6 -13 5 -11 0 -14 -3 -6 -6z"/>
<path d="M791 2066 c-12 -12 -21 -31 -21 -41 0 -16 14 -13 15 3 1 18 27 52 36
47 13 -9 11 -49 -3 -64 -11 -11 -10 -12 0 -6 10 5 13 0 10 -21 -2 -18 -9 -29
-18 -29 -8 0 -14 5 -13 10 0 6 -6 16 -14 24 -13 12 -14 11 -8 -10 12 -39 35
-48 55 -24 14 17 50 20 50 5 0 -5 4 -10 10 -10 5 0 7 7 4 15 -4 8 -17 15 -30
15 -13 0 -24 5 -24 10 0 6 7 10 15 10 8 0 15 5 15 11 0 6 -7 8 -16 5 -10 -4
-14 -1 -11 6 2 7 16 12 30 11 15 -1 27 2 27 7 0 6 -7 10 -15 10 -9 0 -12 6 -9
15 4 8 1 15 -5 15 -6 0 -11 -7 -11 -15 0 -8 -4 -15 -10 -15 -5 0 -10 6 -10 14
0 24 -27 25 -49 2z"/>
<path d="M1014 2024 c-8 -20 -13 -39 -10 -42 3 -3 6 0 6 6 0 16 33 15 48 0 10
-10 10 -6 1 20 -6 17 -13 32 -16 32 -3 0 -3 -7 1 -15 3 -9 0 -15 -9 -15 -18 0
-18 5 -5 31 6 10 8 19 5 19 -3 0 -13 -16 -21 -36z"/>
<path d="M1083 2020 c0 -25 2 -35 4 -22 2 12 2 32 0 45 -2 12 -4 2 -4 -23z"/>
<path d="M1153 2053 c12 -3 17 -16 19 -41 l1 -37 4 35 c3 19 10 38 16 42 7 4
-4 7 -23 7 -19 -1 -27 -3 -17 -6z"/>
<path d="M1343 2020 c0 -25 2 -35 4 -22 2 12 2 32 0 45 -2 12 -4 2 -4 -23z"/>
<path d="M1206 2025 c-7 -20 3 -45 19 -45 19 0 36 25 29 44 -8 20 -40 21 -48
1z m40 -6 c10 -17 -13 -36 -27 -22 -12 12 -4 33 11 33 5 0 12 -5 16 -11z"/>
<path d="M1274 2025 c-13 -32 23 -63 40 -36 4 5 -3 7 -14 4 -16 -4 -20 0 -20
17 0 17 4 21 20 17 11 -3 18 -1 14 4 -8 14 -34 11 -40 -6z"/>
<path d="M1370 2025 c0 -8 5 -15 11 -15 5 0 8 4 4 9 -3 5 3 12 12 14 14 4 13
5 -4 6 -14 1 -23 -5 -23 -14z"/>
<path d="M1378 1983 c6 -2 18 -2 25 0 6 3 1 5 -13 5 -14 0 -19 -2 -12 -5z"/>
<path d="M300 1885 c0 -51 3 -65 15 -65 12 0 15 14 15 65 0 51 -3 65 -15 65
-12 0 -15 -14 -15 -65z m17 -27 c-2 -18 -4 -6 -4 27 0 33 2 48 4 33 2 -15 2
-42 0 -60z"/>
<path d="M358 1893 c6 -2 12 -17 12 -33 0 -16 -6 -31 -12 -33 -8 -3 -6 -6 5
-6 13 -1 17 7 17 39 0 32 -4 40 -17 39 -11 0 -13 -3 -5 -6z"/>
<path d="M250 1850 c0 -20 5 -30 15 -30 10 0 15 10 15 30 0 20 -5 30 -15 30
-10 0 -15 -10 -15 -30z m17 -12 c-3 -7 -5 -2 -5 12 0 14 2 19 5 13 2 -7 2 -19
0 -25z"/>
<path d="M275 1761 c-3 -7 0 -8 9 -5 10 4 16 1 16 -9 0 -9 -7 -18 -15 -20 -11
-4 -10 -4 2 -3 10 1 18 9 18 20 0 22 -20 33 -30 17z"/>
<path d="M324 1755 c-7 -17 3 -35 19 -34 9 0 9 2 0 6 -7 2 -13 11 -13 18 0 7
6 16 13 18 9 4 9 6 -1 6 -7 1 -15 -6 -18 -14z"/>
<path d="M170 1746 c0 -2 7 -6 15 -10 8 -3 15 -1 15 4 0 6 -7 10 -15 10 -8 0
-15 -2 -15 -4z"/>
<path d="M228 1743 c7 -3 16 -2 19 1 4 3 -2 6 -13 5 -11 0 -14 -3 -6 -6z"/>
<path d="M860 1669 c0 -6 -7 -9 -15 -6 -8 4 -17 2 -20 -3 -4 -6 -17 -10 -31
-10 -27 0 -34 -27 -9 -35 8 -3 23 -8 33 -12 9 -3 21 -5 26 -4 5 1 13 -4 17
-11 7 -10 9 -9 9 4 0 11 -10 18 -27 20 -17 2 -28 9 -28 18 0 9 11 16 28 18 15
2 27 9 27 18 0 8 -2 14 -5 14 -3 0 -5 -5 -5 -11z m-60 -39 c0 -5 -4 -10 -10
-10 -5 0 -10 5 -10 10 0 6 5 10 10 10 6 0 10 -4 10 -10z"/>
<path d="M974 1658 c-7 -11 22 -39 40 -37 6 0 1 5 -11 11 -28 14 -30 32 -3 25
11 -3 20 -1 20 4 0 13 -38 11 -46 -3z"/>
<path d="M1273 1630 c0 -25 2 -35 4 -22 2 12 2 32 0 45 -2 12 -4 2 -4 -23z"/>
<path d="M1331 1630 l1 -45 8 35 c5 20 5 39 -1 45 -5 5 -9 -8 -8 -35z"/>
<path d="M1386 1654 c-4 -9 -4 -19 -1 -22 3 -3 6 1 6 9 1 8 5 -2 9 -21 l7 -35
2 43 c1 42 -11 56 -23 26z"/>
<path d="M1530 1661 c0 -5 -9 -11 -20 -14 -12 -3 -20 -14 -20 -26 0 -25 26
-39 42 -23 8 8 5 9 -11 5 -17 -4 -21 -1 -21 17 0 17 4 21 20 17 15 -4 20 0 20
14 0 10 -2 19 -5 19 -3 0 -5 -4 -5 -9z"/>
<path d="M1690 1655 c-15 -18 -10 -45 12 -59 12 -7 21 -7 28 0 8 8 4 10 -12
10 -18 -1 -23 4 -23 24 0 19 5 25 23 24 12 0 22 3 22 8 0 14 -37 9 -50 -7z"/>
<path d="M2103 1630 c0 -25 2 -35 4 -22 2 12 2 32 0 45 -2 12 -4 2 -4 -23z"/>
<path d="M1044 1635 c-13 -32 23 -63 40 -36 4 5 -3 7 -14 4 -16 -4 -20 0 -20
17 0 17 4 21 20 17 11 -3 18 -1 14 4 -8 14 -34 11 -40 -6z"/>
<path d="M1114 1635 c-13 -32 23 -63 40 -36 4 5 -3 7 -14 4 -15 -4 -20 0 -20
15 0 11 8 23 18 25 16 4 16 5 -1 6 -10 0 -20 -6 -23 -14z"/>
<path d="M1220 1642 c8 -4 17 -16 18 -27 6 -33 14 -33 10 0 -2 21 -9 31 -23
32 -15 2 -16 1 -5 -5z"/>
<path d="M1434 1636 c-9 -23 3 -46 23 -45 17 1 17 2 1 6 -22 6 -24 43 -2 43 8
0 12 -4 9 -10 -3 -5 -1 -10 5 -10 18 0 6 25 -13 28 -10 2 -20 -4 -23 -12z"/>
<path d="M1562 1620 c0 -19 2 -27 5 -17 2 9 2 25 0 35 -3 9 -5 1 -5 -18z"/>
<path d="M1598 1643 c6 -2 18 -2 25 0 6 3 1 5 -13 5 -14 0 -19 -2 -12 -5z"/>
<path d="M1770 1640 c0 -5 6 -7 14 -4 10 4 16 -3 19 -23 4 -27 4 -27 6 5 1 26
-3 32 -19 32 -11 0 -20 -4 -20 -10z"/>
<path d="M1850 1642 c8 -4 17 -16 18 -27 6 -33 14 -33 10 0 -2 21 -9 31 -23
32 -15 2 -16 1 -5 -5z"/>
<path d="M1901 1618 c2 -30 2 -31 6 -5 5 34 30 36 36 2 4 -23 4 -23 3 2 -1 21
-7 29 -23 31 -20 3 -23 -1 -22 -30z"/>
<path d="M1970 1640 c0 -5 6 -7 14 -4 10 4 16 -3 19 -23 4 -27 4 -27 6 5 1 26
-3 32 -19 32 -11 0 -20 -4 -20 -10z"/>
<path d="M2034 1636 c-9 -23 3 -46 23 -45 17 1 17 2 1 6 -21 5 -24 43 -4 43 8
0 17 -5 19 -10 3 -6 4 -5 3 2 -4 19 -35 22 -42 4z"/>
<path d="M2125 1641 c-3 -5 0 -13 6 -17 7 -4 9 -3 5 4 -3 6 2 13 11 15 16 4
16 5 1 6 -9 0 -19 -3 -23 -8z"/>
<path d="M1357 1612 c1 -8 3 -16 3 -18 0 -3 5 -2 10 1 6 3 10 11 10 16 0 6 -4
8 -9 5 -5 -4 -11 -3 -14 1 -2 5 -2 2 0 -5z"/>
<path d="M1200 1611 c0 -10 19 -25 25 -20 1 2 -3 10 -11 17 -8 7 -14 8 -14 3z"/>
<path d="M1590 1608 c0 -11 8 -18 20 -18 11 0 20 5 20 11 0 5 -5 7 -11 3 -6
-3 -15 0 -20 7 -7 11 -9 10 -9 -3z"/>
<path d="M1830 1611 c0 -10 19 -25 25 -20 1 2 -3 10 -11 17 -8 7 -14 8 -14 3z"/>
<path d="M2155 1611 c3 -5 -2 -12 -10 -14 -12 -4 -12 -5 1 -3 19 1 32 26 14
26 -6 0 -9 -4 -5 -9z"/>
<path d="M977 1598 c2 -5 13 -8 24 -8 10 0 19 3 19 8 0 4 -11 7 -24 7 -13 0
-22 -3 -19 -7z"/>
<path d="M310 1475 c-11 -13 -8 -21 15 -45 21 -22 32 -27 41 -19 17 14 14 71
-3 65 -7 -3 -15 -1 -18 4 -9 14 -21 12 -35 -5z m60 -42 c0 -19 -14 -16 -34 6
-24 27 -11 48 15 25 10 -9 19 -23 19 -31z"/>
<path d="M249 1413 c-9 -10 -9 -17 -1 -25 6 -6 8 -17 5 -26 -4 -10 -2 -13 6
-8 6 4 18 3 25 -3 10 -8 17 -7 27 5 18 22 20 56 1 49 -9 -3 -12 0 -9 9 7 18
-39 18 -54 -1z m44 -21 c10 -10 14 -21 11 -25 -10 -10 -44 12 -44 28 0 20 13
19 33 -3z"/>
<path d="M102 1270 c0 -19 2 -27 5 -17 2 9 2 25 0 35 -3 9 -5 1 -5 -18z"/>
<path d="M148 1263 c5 -21 7 -23 10 -9 2 10 0 22 -6 28 -6 6 -7 0 -4 -19z"/>
<path d="M204 1275 c-4 -9 -1 -22 6 -28 10 -9 11 -9 6 1 -5 7 -1 12 9 12 9 0
15 5 13 12 -7 19 -27 21 -34 3z"/>
<path d="M358 1282 c11 -7 11 -10 -2 -15 -9 -4 -16 -12 -16 -19 0 -9 3 -9 10
2 9 13 11 13 20 0 9 -12 10 -10 8 9 -2 14 -10 26 -18 28 -12 4 -12 3 -2 -5z"/>
<path d="M422 1265 c0 -16 2 -22 5 -12 2 9 2 23 0 30 -3 6 -5 -1 -5 -18z"/>
<path d="M446 1282 c-2 -4 4 -8 14 -8 10 0 16 4 14 8 -3 4 -9 8 -14 8 -5 0
-11 -4 -14 -8z"/>
<path d="M518 1263 c5 -21 7 -23 10 -9 2 10 0 22 -6 28 -6 6 -7 0 -4 -19z"/>
<path d="M780 1275 c0 -12 13 -15 55 -15 42 0 55 3 55 15 0 12 -13 15 -55 15
-42 0 -55 -3 -55 -15z"/>
<path d="M122 1260 c0 -14 2 -19 5 -12 2 6 2 18 0 25 -3 6 -5 1 -5 -13z"/>
<path d="M492 1260 c0 -14 2 -19 5 -12 2 6 2 18 0 25 -3 6 -5 1 -5 -13z"/>
<path d="M1013 1273 c12 -3 17 -16 19 -41 l1 -37 4 35 c3 19 10 38 16 42 7 4
-4 7 -23 7 -19 -1 -27 -3 -17 -6z"/>
<path d="M1303 1240 c0 -25 2 -35 4 -22 2 12 2 32 0 45 -2 12 -4 2 -4 -23z"/>
<path d="M450 1246 c7 -7 13 -7 20 0 6 6 3 10 -10 10 -13 0 -16 -4 -10 -10z"/>
<path d="M1080 1253 c8 -3 19 -11 23 -17 6 -7 7 -6 4 4 -2 8 -12 16 -23 17
-13 2 -15 1 -4 -4z"/>
<path d="M1132 1230 c0 -19 2 -27 5 -17 2 9 2 25 0 35 -3 9 -5 1 -5 -18z"/>
<path d="M1158 1251 c6 -3 12 -17 15 -31 4 -24 4 -24 6 4 1 21 5 27 16 22 8
-3 15 -1 15 4 0 5 -14 8 -31 8 -16 -1 -26 -4 -21 -7z"/>
<path d="M1231 1215 c1 -22 3 -33 6 -24 2 11 11 15 22 12 11 -3 21 2 24 11 10
26 -3 46 -29 44 -21 -2 -24 -7 -23 -43z m45 24 c10 -17 -13 -36 -27 -22 -12
12 -4 33 11 33 5 0 12 -5 16 -11z"/>
<path d="M1338 1253 c6 -2 18 -2 25 0 6 3 1 5 -13 5 -14 0 -19 -2 -12 -5z"/>
<path d="M1398 1253 c7 -3 16 -2 19 1 4 3 -2 6 -13 5 -11 0 -14 -3 -6 -6z"/>
<path d="M1434 1246 c-9 -23 3 -46 23 -45 17 1 17 2 1 6 -21 5 -24 43 -4 43 8
0 17 -5 19 -10 3 -6 4 -5 3 2 -4 19 -35 22 -42 4z"/>
<path d="M1495 1251 c-3 -5 0 -13 6 -17 7 -4 9 -3 5 4 -3 6 2 13 11 15 16 4
16 5 1 6 -9 0 -19 -3 -23 -8z"/>
<path d="M798 1233 c12 -2 32 -2 45 0 12 2 2 4 -23 4 -25 0 -35 -2 -22 -4z"/>
<path d="M1060 1229 c0 -5 5 -7 10 -4 6 3 10 8 10 11 0 2 -4 4 -10 4 -5 0 -10
-5 -10 -11z"/>
<path d="M268 1223 c7 -3 16 -2 19 1 4 3 -2 6 -13 5 -11 0 -14 -3 -6 -6z"/>
<path d="M1330 1218 c0 -11 8 -18 20 -18 11 0 20 5 20 11 0 5 -5 7 -11 3 -6
-3 -15 0 -20 7 -7 11 -9 10 -9 -3z"/>
<path d="M1525 1221 c3 -5 -2 -12 -10 -14 -12 -4 -12 -5 1 -3 19 1 32 26 14
26 -6 0 -9 -4 -5 -9z"/>
<path d="M1078 1203 c6 -2 18 -2 25 0 6 3 1 5 -13 5 -14 0 -19 -2 -12 -5z"/>
<path d="M786 895 c-3 -9 -6 -38 -6 -64 l0 -48 55 0 56 0 -3 61 -3 61 -46 3
c-36 2 -48 -1 -53 -13z m94 -44 c0 -46 -2 -49 -27 -53 -53 -7 -63 0 -63 46 0
52 3 56 52 56 l38 0 0 -49z"/>
<path d="M823 863 c9 -2 23 -2 30 0 6 3 -1 5 -18 5 -16 0 -22 -2 -12 -5z"/>
<path d="M818 833 c7 -3 16 -2 19 1 4 3 -2 6 -13 5 -11 0 -14 -3 -6 -6z"/>
<path d="M1000 850 c0 -39 1 -41 28 -38 24 3 27 7 27 38 0 31 -3 35 -27 38
-27 3 -28 1 -28 -38z m50 20 c0 -5 -5 -10 -12 -10 -9 0 -9 -3 0 -12 17 -17 15
-28 -6 -28 -14 0 -19 8 -19 30 0 22 5 30 19 30 10 0 18 -4 18 -10z"/>
<path d="M1103 850 c0 -25 2 -35 4 -22 2 12 2 32 0 45 -2 12 -4 2 -4 -23z"/>
<path d="M1133 850 c0 -25 2 -35 4 -22 2 12 2 32 0 45 -2 12 -4 2 -4 -23z"/>
<path d="M1162 840 c0 -19 2 -27 5 -17 2 9 2 25 0 35 -3 9 -5 1 -5 -18z"/>
<path d="M1191 838 c2 -30 2 -31 6 -5 5 34 30 36 36 2 4 -23 4 -23 3 2 -1 21
-7 29 -23 31 -20 3 -23 -1 -22 -30z"/>
<path d="M1278 860 c24 -10 29 -25 10 -36 -6 -4 -17 1 -25 11 -7 11 -13 14
-13 8 0 -15 22 -30 43 -30 12 0 17 8 17 26 0 22 -5 27 -27 28 -26 2 -27 1 -5
-7z"/>
<path d="M12765 421 c-43 -19 -70 -60 -70 -107 0 -36 6 -49 33 -76 27 -27 40
-33 77 -33 37 0 50 6 77 33 27 27 33 40 33 77 0 36 -6 50 -30 75 -33 33 -85
46 -120 31z m65 -96 c0 -33 -4 -45 -15 -45 -9 0 -15 9 -15 24 0 13 -6 26 -12
29 -10 3 -10 7 1 20 25 31 41 20 41 -28z"/>
<path d="M4951 353 c-1 -13 5 -23 12 -23 8 0 14 7 14 15 0 8 -4 12 -8 9 -4 -2
-10 2 -12 8 -3 7 -6 3 -6 -9z"/>
<path d="M5005 360 c27 -12 43 -12 25 0 -8 5 -22 9 -30 9 -10 0 -8 -3 5 -9z"/>
<path d="M2974 349 c-4 -8 0 -9 15 -4 28 9 28 -12 -1 -42 l-21 -23 34 1 c19 1
26 3 17 6 -22 6 -22 12 -2 34 9 10 13 23 9 28 -8 14 -42 14 -51 0z"/>
<path d="M3047 353 c-14 -13 -6 -33 13 -33 11 0 20 -7 20 -16 0 -11 -6 -14
-21 -9 -15 5 -19 4 -15 -4 10 -15 43 -14 49 2 7 19 -4 34 -28 39 -18 5 -18 6
5 16 23 10 23 11 4 11 -11 1 -24 -2 -27 -6z"/>
<path d="M4254 348 c-4 -6 -3 -8 4 -4 7 4 12 -7 15 -31 l4 -38 1 43 c2 40 -9
55 -24 30z"/>
<path d="M4653 320 c0 -25 2 -35 4 -22 2 12 2 32 0 45 -2 12 -4 2 -4 -23z"/>
<path d="M4684 334 c-4 -14 -3 -34 2 -45 7 -15 9 -8 9 26 0 52 -2 55 -11 19z"/>
<path d="M12549 333 c-13 -16 -12 -17 4 -4 16 13 21 21 13 21 -2 0 -10 -8 -17
-17z"/>
<path d="M3571 295 c1 -22 3 -33 6 -24 2 11 11 15 22 12 11 -3 21 2 24 11 10
26 -3 46 -29 44 -21 -2 -24 -7 -23 -43z m45 24 c10 -17 -13 -36 -27 -22 -12
12 -4 33 11 33 5 0 12 -5 16 -11z"/>
<path d="M3644 326 c-9 -23 3 -46 23 -45 17 1 17 2 1 6 -21 5 -24 43 -4 43 8
0 17 -5 19 -10 3 -6 4 -5 3 2 -4 19 -35 22 -42 4z"/>
<path d="M3711 308 c2 -28 2 -29 6 -8 3 14 10 28 17 32 7 5 5 8 -6 8 -14 0
-18 -8 -17 -32z"/>
<path d="M3783 300 c0 -25 2 -35 4 -22 2 12 2 32 0 45 -2 12 -4 2 -4 -23z"/>
<path d="M3810 333 c5 -2 10 -13 10 -23 0 -10 -5 -21 -10 -23 -6 -3 -5 -4 2
-3 7 2 13 13 13 26 0 13 -6 24 -13 26 -7 1 -8 0 -2 -3z"/>
<path d="M3858 333 c6 -2 18 -2 25 0 6 3 1 5 -13 5 -14 0 -19 -2 -12 -5z"/>
<path d="M3938 330 c24 -10 29 -25 10 -36 -6 -4 -17 1 -25 11 -7 11 -13 14
-13 8 0 -15 22 -30 43 -30 12 0 17 8 17 26 0 22 -5 27 -27 28 -26 2 -27 1 -5
-7z"/>
<path d="M3984 326 c-9 -23 3 -46 23 -45 16 1 16 2 1 6 -9 2 -16 13 -15 24 1
20 22 26 30 9 3 -6 4 -5 3 2 -4 19 -35 22 -42 4z"/>
<path d="M4331 308 c2 -28 2 -29 6 -8 3 14 10 28 17 32 7 5 5 8 -6 8 -14 0
-18 -8 -17 -32z"/>
<path d="M4374 326 c-9 -23 3 -46 23 -45 17 1 17 2 1 6 -22 6 -24 43 -2 43 8
0 12 -4 9 -10 -3 -5 -1 -10 5 -10 18 0 6 25 -13 28 -10 2 -20 -4 -23 -12z"/>
<path d="M4436 325 c-12 -31 22 -63 38 -36 3 5 -2 8 -12 7 -9 0 -17 6 -17 14
0 8 8 14 18 14 9 -1 17 2 17 7 0 15 -38 10 -44 -6z"/>
<path d="M4504 326 c-9 -24 4 -48 23 -44 12 2 18 12 18 28 0 29 -32 41 -41 16z
m36 -16 c0 -11 -7 -20 -15 -20 -8 0 -15 9 -15 20 0 11 7 20 15 20 8 0 15 -9
15 -20z"/>
<path d="M4571 308 c2 -28 2 -29 6 -8 3 14 10 28 17 32 7 5 5 8 -6 8 -14 0
-18 -8 -17 -32z"/>
<path d="M4614 325 c-8 -20 2 -45 18 -44 10 0 10 2 1 6 -7 2 -13 13 -13 23 0
10 6 21 13 23 9 4 9 6 -1 6 -7 1 -15 -6 -18 -14z"/>
<path d="M4720 325 c0 -8 5 -15 11 -15 5 0 8 4 4 9 -3 5 3 12 12 14 14 4 13 5
-4 6 -14 1 -23 -5 -23 -14z"/>
<path d="M3305 310 c17 -19 19 -19 37 -3 21 19 16 32 -6 14 -10 -8 -16 -9 -21
-1 -3 5 -11 10 -17 10 -6 0 -3 -9 7 -20z"/>
<path d="M4791 314 c0 -11 3 -14 6 -6 3 7 2 16 -1 19 -3 4 -6 -2 -5 -13z"/>
<path d="M331 304 c0 -11 3 -14 6 -6 3 7 2 16 -1 19 -3 4 -6 -2 -5 -13z"/>
<path d="M3850 298 c0 -11 8 -18 20 -18 11 0 20 5 20 11 0 5 -5 7 -11 3 -6 -3
-15 0 -20 7 -7 11 -9 10 -9 -3z"/>
<path d="M4750 301 c0 -5 -8 -12 -17 -14 -14 -4 -12 -5 5 -6 13 -1 22 5 22 14
0 8 -2 15 -5 15 -3 0 -5 -4 -5 -9z"/>
<path d="M5021 297 c2 -1 12 -9 22 -16 14 -12 17 -11 17 3 0 10 -8 16 -22 16
-12 0 -19 -1 -17 -3z"/>
<path d="M4967 279 c7 -7 15 -10 18 -7 3 3 -2 9 -12 12 -14 6 -15 5 -6 -5z"/>
<path d="M13372 260 c-54 -23 -52 -112 2 -139 78 -37 147 51 94 121 -16 22
-65 31 -96 18z m88 -29 c25 -48 -1 -101 -51 -101 -34 0 -59 24 -59 56 0 46 17
64 60 64 29 0 42 -5 50 -19z"/>
<path d="M13400 216 c0 -24 38 -62 49 -50 3 3 -2 10 -12 15 -9 6 -17 21 -17
34 0 14 -4 25 -10 25 -5 0 -10 -11 -10 -24z"/>
</g>
</svg>
